<svg version="1.1" xmlns="http://www.w3.org/2000/svg" viewBox="0 0 1086.3557739257812 812.6973419189453" width="1086.3557739257812" height="812.6973419189453">
  <!-- svg-source:excalidraw -->
  
  <defs>
    <style>
      @font-face {
        font-family: "Virgil";
        src: url("https://excalidraw.com/Virgil.woff2");
      }
      @font-face {
        font-family: "Cascadia";
        src: url("https://excalidraw.com/Cascadia.woff2");
      }
    </style>
  </defs>
  <rect x="0" y="0" width="1086.3557739257812" height="812.6973419189453" fill="#ffffff"></rect><g transform="translate(31.0035400390625 76.82389831542969) rotate(0 -10.176727294921875 235.07566833496094)" stroke="none"><path fill="#000000" d="M 1.56,-0.10 Q 1.56,-0.10 1.72,2.69 1.87,5.48 1.95,7.52 2.03,9.56 2.04,14.42 2.04,19.27 2.04,28.18 2.04,37.08 1.53,48.89 1.02,60.70 0.29,74.58 -0.42,88.46 -0.98,105.76 -1.54,123.07 -1.78,138.13 -2.02,153.19 -2.12,166.44 -2.22,179.69 -2.27,191.31 -2.31,202.92 -2.81,213.87 -3.31,224.82 -4.00,234.89 -4.68,244.95 -5.20,257.46 -5.71,269.98 -5.93,281.56 -6.15,293.14 -6.25,300.92 -6.34,308.69 -6.62,321.12 -6.90,333.56 -7.49,343.98 -8.08,354.41 -8.78,361.13 -9.49,367.86 -10.70,375.28 -11.91,382.71 -13.26,390.94 -14.61,399.18 -15.57,405.20 -16.53,411.23 -16.94,416.27 -17.34,421.32 -17.71,425.73 -18.09,430.14 -18.25,433.65 -18.41,437.17 -18.47,439.75 -18.54,442.33 -18.57,445.38 -18.60,448.43 -18.61,451.10 -18.62,453.78 -18.28,456.80 -17.93,459.81 -17.78,462.66 -17.63,465.51 -17.44,466.76 -17.25,468.01 -17.45,469.41 -17.65,470.81 -19.14,470.98 -20.63,471.15 -21.87,467.80 -23.12,464.45 -23.15,464.10 -23.17,463.75 -23.09,463.41 -23.00,463.06 -22.81,462.77 -22.62,462.47 -22.35,462.25 -22.07,462.03 -21.74,461.90 -21.41,461.78 -21.06,461.77 -20.71,461.76 -20.37,461.86 -20.03,461.97 -19.74,462.17 -19.46,462.38 -19.25,462.67 -19.04,462.95 -18.94,463.29 -18.84,463.63 -18.85,463.98 -18.85,464.33 -18.98,464.66 -19.10,465.00 -19.32,465.27 -19.54,465.55 -19.84,465.74 -20.13,465.93 -20.48,466.01 -20.82,466.10 -21.17,466.07 -21.52,466.04 -21.85,465.90 -22.17,465.76 -22.44,465.53 -22.70,465.29 -22.87,464.99 -23.05,464.68 -23.11,464.33 -23.18,463.99 -23.13,463.64 -23.09,463.29 -22.93,462.97 -22.77,462.65 -22.52,462.40 -22.27,462.15 -21.96,462.00 -21.64,461.84 -21.29,461.79 -20.94,461.74 -20.59,461.81 -20.25,461.87 -19.94,462.05 -19.63,462.22 -19.40,462.48 -19.16,462.75 -19.02,463.07 -18.88,463.40 -18.88,463.40 -18.88,463.39 -18.49,465.80 -18.10,468.20 -19.24,468.19 -20.38,468.17 -20.32,466.91 -20.25,465.65 -20.40,462.88 -20.54,460.11 -20.90,456.94 -21.25,453.77 -21.24,451.09 -21.22,448.40 -21.20,445.33 -21.17,442.26 -21.10,439.66 -21.03,437.05 -20.87,433.48 -20.71,429.91 -20.33,425.51 -19.96,421.11 -19.54,415.96 -19.13,410.82 -18.17,404.78 -17.21,398.75 -15.86,390.52 -14.51,382.29 -13.31,374.93 -12.10,367.58 -11.40,360.92 -10.70,354.26 -10.12,343.88 -9.53,333.50 -9.25,321.08 -8.97,308.66 -8.88,300.87 -8.79,293.09 -8.57,281.48 -8.35,269.87 -7.83,257.32 -7.32,244.77 -6.64,234.74 -5.96,224.70 -5.46,213.81 -4.97,202.91 -4.93,191.29 -4.89,179.67 -4.79,166.41 -4.70,153.15 -4.47,138.07 -4.24,122.98 -3.69,105.65 -3.15,88.32 -2.44,74.45 -1.74,60.59 -1.26,48.84 -0.78,37.08 -0.81,28.19 -0.84,19.29 -0.90,14.49 -0.96,9.68 -1.04,7.68 -1.12,5.68 -1.34,2.89 -1.56,0.10 -1.55,-0.08 -1.54,-0.27 -1.49,-0.45 -1.43,-0.63 -1.34,-0.79 -1.24,-0.96 -1.11,-1.09 -0.97,-1.23 -0.81,-1.33 -0.65,-1.42 -0.47,-1.48 -0.29,-1.54 -0.10,-1.55 0.08,-1.57 0.27,-1.53 0.45,-1.50 0.63,-1.42 0.80,-1.35 0.95,-1.23 1.10,-1.11 1.22,-0.97 1.34,-0.82 1.41,-0.64 1.49,-0.47 1.53,-0.29 1.56,-0.10 1.56,-0.10 L 1.56,-0.10 Z"></path></g><g transform="translate(37.24542236328125 79.25483703613281) rotate(0 272.9971923828125 234.2941436767578)" stroke="none"><path fill="#000000" d="M -0.17,-1.55 Q -0.17,-1.55 1.87,-1.76 3.92,-1.97 6.51,-2.04 9.11,-2.11 11.87,-2.13 14.63,-2.15 18.34,-2.15 22.04,-2.15 27.59,-2.15 33.13,-2.14 39.74,-2.14 46.36,-2.13 53.71,-2.13 61.07,-2.12 71.01,-2.12 80.96,-2.11 89.43,-2.34 97.89,-2.57 104.07,-2.67 110.24,-2.77 117.39,-3.03 124.55,-3.29 133.88,-3.40 143.21,-3.51 153.16,-3.56 163.11,-3.60 176.18,-3.62 189.24,-3.64 200.20,-3.65 211.16,-3.66 220.36,-3.66 229.57,-3.66 237.45,-3.67 245.33,-3.67 252.07,-3.67 258.82,-3.67 267.67,-3.23 276.53,-2.79 285.09,-2.60 293.65,-2.42 299.86,-2.34 306.06,-2.26 324.89,-2.22 343.72,-2.19 353.71,-2.18 363.70,-2.16 369.93,-2.16 376.16,-2.15 380.50,-2.15 384.85,-2.14 392.38,-1.93 399.91,-1.72 405.34,-1.63 410.77,-1.54 415.03,-1.50 419.29,-1.46 425.33,-1.44 431.36,-1.43 435.63,-1.42 439.89,-1.41 445.96,-1.41 452.03,-1.41 456.88,-1.18 461.73,-0.96 465.15,-0.87 468.57,-0.77 471.40,-0.73 474.22,-0.69 477.70,-0.49 481.18,-0.28 484.90,-0.00 488.62,0.28 494.10,0.40 499.58,0.52 504.74,0.58 509.89,0.63 516.05,0.65 522.21,0.67 528.80,0.68 535.39,0.69 541.29,0.70 547.20,0.70 550.01,0.64 552.83,0.59 554.08,0.44 555.34,0.29 556.52,-0.01 557.70,-0.32 559.07,-0.63 560.44,-0.94 561.63,-1.13 562.82,-1.31 564.41,-1.49 566.00,-1.66 567.35,-1.83 568.71,-2.00 570.47,-1.88 572.23,-1.75 572.66,0.33 573.09,2.42 572.20,5.28 571.31,8.13 570.82,10.29 570.34,12.45 569.63,15.62 568.93,18.80 568.43,22.32 567.92,25.84 567.29,31.57 566.66,37.30 565.95,44.25 565.24,51.21 563.86,60.70 562.49,70.18 561.46,78.16 560.42,86.14 559.52,94.35 558.62,102.57 557.78,110.32 556.94,118.07 556.16,124.77 555.37,131.46 554.41,137.44 553.44,143.42 552.36,150.21 551.27,156.99 549.94,165.25 548.61,173.52 547.39,181.00 546.16,188.48 545.43,193.35 544.69,198.22 543.59,204.25 542.48,210.29 541.81,214.24 541.14,218.20 540.24,222.72 539.34,227.24 538.14,232.29 536.94,237.33 535.16,244.56 533.37,251.79 531.55,258.28 529.72,264.76 528.07,271.46 526.42,278.16 525.29,284.65 524.16,291.14 523.02,297.89 521.87,304.63 520.97,310.88 520.06,317.13 519.26,322.89 518.46,328.65 517.77,334.17 517.07,339.69 516.78,342.85 516.49,346.02 516.19,349.04 515.90,352.06 515.78,354.98 515.66,357.89 515.61,361.66 515.55,365.42 515.53,370.42 515.51,375.42 515.50,382.63 515.49,389.85 515.49,396.31 515.48,402.77 515.48,408.34 515.48,413.90 515.48,417.67 515.48,421.45 515.48,426.13 515.48,430.81 515.48,434.47 515.48,438.12 515.48,441.34 515.48,444.56 515.48,447.31 515.48,450.06 515.56,451.75 515.65,453.43 515.76,454.58 515.88,455.73 516.03,457.01 516.19,458.29 515.17,459.50 514.15,460.71 512.71,460.90 511.28,461.10 508.77,460.95 506.25,460.80 500.63,460.69 495.02,460.58 487.23,460.50 479.43,460.41 470.71,460.35 461.99,460.29 450.31,460.25 438.63,460.20 427.97,460.17 417.31,460.14 406.22,460.11 395.13,460.09 385.59,460.07 376.04,460.05 368.01,460.04 359.98,460.03 353.18,460.02 346.37,460.01 340.66,460.00 334.95,460.00 329.42,459.99 323.88,459.99 318.71,459.98 313.54,459.98 306.22,459.98 298.90,459.97 290.38,459.97 281.86,459.97 272.83,459.97 263.80,459.97 252.57,459.97 241.34,459.97 226.35,459.96 211.37,459.96 202.73,459.96 194.08,459.96 186.44,459.96 178.80,459.96 172.16,459.96 165.51,459.96 153.59,460.34 141.67,460.72 136.34,460.88 131.00,461.04 128.64,461.17 126.27,461.29 122.76,461.53 119.26,461.77 116.37,461.88 113.47,461.98 109.16,462.24 104.85,462.51 99.01,462.62 93.18,462.73 87.04,463.00 80.91,463.27 75.80,463.77 70.69,464.27 66.86,464.81 63.04,465.35 60.33,465.84 57.62,466.32 55.10,466.82 52.57,467.33 50.72,467.81 48.87,468.28 46.68,468.76 44.49,469.24 40.72,469.78 36.96,470.33 33.69,470.72 30.43,471.11 27.63,471.28 24.83,471.45 22.30,471.68 19.77,471.92 17.56,472.02 15.36,472.12 13.55,472.35 11.75,472.58 8.57,472.19 5.38,471.81 3.79,471.70 2.21,471.59 0.95,471.52 -0.29,471.44 -1.76,471.41 -3.24,471.38 -4.57,471.47 -5.91,471.55 -7.45,471.40 -8.98,471.25 -10.60,471.14 -12.21,471.04 -15.77,470.59 -19.33,470.15 -21.59,467.99 -23.85,465.84 -23.56,466.03 -23.27,466.22 -23.06,466.50 -22.85,466.77 -22.74,467.10 -22.63,467.43 -22.63,467.78 -22.62,468.13 -22.73,468.45 -22.84,468.78 -23.05,469.06 -23.26,469.34 -23.55,469.53 -23.83,469.73 -24.17,469.83 -24.50,469.92 -24.85,469.90 -25.20,469.88 -25.52,469.76 -25.84,469.63 -26.11,469.41 -26.37,469.18 -26.55,468.89 -26.73,468.59 -26.81,468.25 -26.89,467.91 -26.85,467.57 -26.81,467.22 -26.67,466.91 -26.52,466.59 -26.29,466.34 -26.05,466.08 -25.74,465.92 -25.44,465.76 -25.09,465.70 -24.75,465.64 -24.41,465.70 -24.07,465.75 -23.76,465.91 -23.45,466.07 -23.21,466.32 -22.97,466.58 -22.83,466.89 -22.68,467.20 -22.64,467.55 -22.60,467.89 -22.67,468.23 -22.75,468.57 -22.92,468.87 -23.10,469.17 -23.37,469.40 -23.63,469.62 -23.95,469.75 -24.27,469.88 -24.62,469.90 -24.97,469.92 -25.30,469.83 -25.64,469.74 -25.64,469.74 -25.64,469.74 -22.30,467.82 -18.97,465.90 -15.51,466.05 -12.04,466.20 -10.26,466.22 -8.49,466.23 -7.17,466.36 -5.85,466.49 -4.35,466.64 -2.84,466.79 -1.32,467.11 0.20,467.43 1.38,467.65 2.55,467.88 4.24,468.08 5.93,468.27 8.95,468.65 11.96,469.02 13.60,469.25 15.23,469.47 17.38,469.37 19.52,469.27 22.10,469.02 24.67,468.78 27.39,468.61 30.10,468.44 33.33,468.04 36.56,467.64 40.23,467.10 43.89,466.56 46.06,466.06 48.23,465.56 50.14,465.16 52.06,464.76 54.61,464.24 57.16,463.73 59.92,463.24 62.67,462.75 66.55,462.20 70.43,461.65 75.61,461.15 80.79,460.64 86.96,460.37 93.13,460.11 98.91,459.99 104.69,459.88 109.03,459.62 113.38,459.35 116.23,459.25 119.08,459.15 122.60,458.91 126.13,458.67 128.53,458.54 130.92,458.41 136.26,458.25 141.59,458.09 153.55,457.71 165.51,457.33 172.16,457.33 178.80,457.33 186.44,457.33 194.08,457.33 202.73,457.33 211.37,457.33 226.35,457.33 241.34,457.33 252.57,457.33 263.80,457.33 272.83,457.32 281.86,457.32 290.38,457.32 298.90,457.32 306.22,457.32 313.54,457.31 318.71,457.31 323.88,457.31 329.42,457.30 334.95,457.30 340.66,457.29 346.37,457.28 353.18,457.28 359.98,457.27 368.01,457.25 376.04,457.24 385.59,457.22 395.13,457.21 406.22,457.18 417.31,457.16 427.97,457.12 438.63,457.09 450.31,457.05 461.99,457.00 470.71,456.94 479.43,456.88 487.23,456.80 495.02,456.71 500.63,456.60 506.25,456.49 509.19,457.22 512.14,457.95 512.30,456.84 512.45,455.73 512.56,454.58 512.68,453.43 512.76,451.75 512.85,450.06 512.85,447.31 512.85,444.56 512.85,441.34 512.85,438.12 512.85,434.47 512.85,430.81 512.85,426.13 512.85,421.45 512.85,417.67 512.85,413.90 512.85,408.33 512.86,402.77 512.86,396.31 512.86,389.84 512.87,382.62 512.88,375.41 512.91,370.40 512.93,365.39 512.98,361.58 513.03,357.78 513.16,354.79 513.29,351.81 513.58,348.79 513.87,345.77 514.17,342.57 514.47,339.37 515.16,333.83 515.86,328.29 516.66,322.52 517.46,316.75 518.37,310.47 519.28,304.19 520.43,297.44 521.57,290.69 522.72,284.11 523.87,277.53 525.53,270.79 527.19,264.05 529.00,257.61 530.82,251.16 532.60,243.94 534.38,236.72 535.57,231.73 536.76,226.73 537.65,222.24 538.54,217.76 539.21,213.79 539.88,209.81 540.98,203.82 542.08,197.83 542.81,192.94 543.54,188.06 544.76,180.58 545.99,173.10 547.31,164.83 548.63,156.57 549.71,149.78 550.78,142.99 551.73,137.07 552.67,131.15 553.44,124.47 554.20,117.78 555.02,110.02 555.83,102.27 556.71,94.02 557.58,85.78 558.57,77.77 559.56,69.77 560.87,60.34 562.17,50.91 562.80,43.94 563.43,36.98 563.95,31.20 564.47,25.42 564.84,21.76 565.21,18.10 565.70,14.94 566.18,11.78 566.42,9.43 566.66,7.08 567.93,4.89 569.21,2.69 567.88,2.81 566.56,2.92 564.95,3.13 563.35,3.34 562.16,3.43 560.97,3.51 559.56,3.53 558.14,3.54 556.77,3.48 555.40,3.41 554.14,3.31 552.88,3.21 550.04,3.27 547.20,3.33 541.29,3.32 535.38,3.32 528.79,3.31 522.20,3.30 516.03,3.28 509.86,3.25 504.69,3.20 499.52,3.15 493.97,3.03 488.42,2.90 484.72,2.62 481.02,2.33 477.61,2.13 474.19,1.92 471.34,1.88 468.50,1.84 465.05,1.75 461.61,1.65 456.82,1.43 452.03,1.21 445.96,1.21 439.89,1.20 435.62,1.20 431.36,1.19 425.31,1.17 419.27,1.16 415.00,1.12 410.72,1.08 405.28,0.99 399.84,0.90 392.34,0.69 384.85,0.47 380.50,0.47 376.15,0.47 369.92,0.46 363.69,0.46 353.70,0.44 343.71,0.43 324.87,0.39 306.02,0.36 299.81,0.28 293.60,0.20 285.00,0.01 276.39,-0.16 267.61,-0.60 258.82,-1.04 252.07,-1.04 245.33,-1.04 237.45,-1.04 229.57,-1.03 220.36,-1.03 211.16,-1.03 200.20,-1.02 189.24,-1.01 176.19,-0.99 163.13,-0.97 153.19,-0.92 143.25,-0.87 133.94,-0.76 124.64,-0.65 117.46,-0.38 110.28,-0.12 104.12,-0.02 97.96,0.08 89.46,0.31 80.96,0.55 71.01,0.55 61.07,0.56 53.71,0.57 46.36,0.57 39.75,0.59 33.13,0.60 27.59,0.62 22.06,0.63 18.37,0.67 14.67,0.70 11.95,0.76 9.22,0.82 6.74,0.95 4.26,1.07 2.21,1.31 0.17,1.55 -0.01,1.55 -0.20,1.55 -0.38,1.50 -0.57,1.45 -0.73,1.37 -0.90,1.28 -1.04,1.15 -1.18,1.02 -1.29,0.86 -1.39,0.71 -1.46,0.53 -1.52,0.35 -1.54,0.17 -1.56,-0.01 -1.54,-0.20 -1.51,-0.39 -1.44,-0.56 -1.38,-0.74 -1.27,-0.89 -1.16,-1.05 -1.01,-1.17 -0.87,-1.30 -0.70,-1.38 -0.53,-1.47 -0.35,-1.51 -0.17,-1.55 -0.17,-1.55 L -0.17,-1.55 Z"></path></g><g transform="translate(36.88006591796875 138.36070251464844) rotate(0 285.42218017578125 4.2855224609375)" stroke="none"><path fill="#000000" d="M -0.10,-1.68 Q -0.10,-1.68 0.85,-1.84 1.80,-2.00 3.05,-2.10 4.30,-2.20 6.50,-2.12 8.70,-2.03 11.40,-1.62 14.11,-1.22 16.81,-1.03 19.51,-0.84 23.19,-0.74 26.87,-0.65 31.29,-0.41 35.71,-0.16 41.52,-0.05 47.33,0.05 56.35,0.33 65.38,0.61 73.47,0.96 81.57,1.31 89.82,1.46 98.08,1.61 106.15,1.91 114.22,2.20 122.18,2.33 130.14,2.46 138.08,2.74 146.03,3.02 154.80,3.14 163.56,3.26 172.12,3.32 180.68,3.37 190.02,3.39 199.35,3.41 208.75,3.66 218.14,3.90 226.97,4.23 235.79,4.57 243.80,4.94 251.81,5.30 262.32,5.69 272.82,6.07 282.99,6.47 293.15,6.87 300.59,7.04 308.04,7.21 316.61,7.28 325.18,7.35 333.94,7.38 342.70,7.41 350.40,7.42 358.09,7.44 366.45,7.44 374.82,7.45 380.90,7.45 386.99,7.45 392.10,7.45 397.22,7.45 401.92,7.46 406.63,7.46 411.45,7.46 416.27,7.46 421.42,7.46 426.57,7.46 431.58,7.46 436.59,7.46 440.39,7.46 444.18,7.46 448.04,7.46 451.90,7.46 456.07,7.46 460.24,7.46 466.81,7.46 473.39,7.46 479.29,7.46 485.19,7.46 489.68,7.46 494.18,7.46 500.29,7.27 506.41,7.08 510.76,6.84 515.10,6.59 518.61,6.35 522.13,6.11 526.97,5.82 531.80,5.53 536.09,5.24 540.38,4.95 543.18,4.83 545.97,4.70 548.79,4.49 551.62,4.27 554.49,4.01 557.36,3.75 559.07,3.48 560.79,3.21 561.92,3.01 563.05,2.81 564.24,2.47 565.42,2.14 567.97,1.63 570.52,1.12 570.90,1.13 571.27,1.14 571.62,1.27 571.97,1.39 572.26,1.63 572.55,1.86 572.75,2.17 572.95,2.49 573.04,2.85 573.13,3.21 573.10,3.58 573.07,3.95 572.93,4.29 572.78,4.63 572.53,4.91 572.28,5.19 571.96,5.37 571.64,5.56 571.27,5.63 570.91,5.70 570.54,5.65 570.17,5.60 569.84,5.43 569.50,5.27 569.24,5.01 568.98,4.74 568.81,4.41 568.64,4.08 568.59,3.71 568.54,3.34 568.61,2.98 568.68,2.61 568.86,2.29 569.04,1.96 569.32,1.71 569.60,1.46 569.94,1.32 570.28,1.17 570.65,1.14 571.02,1.11 571.38,1.20 571.74,1.29 572.06,1.48 572.37,1.68 572.60,1.97 572.84,2.26 572.97,2.61 573.10,2.96 573.11,3.33 573.12,3.70 573.01,4.06 572.90,4.42 572.69,4.72 572.47,5.02 572.17,5.24 571.87,5.46 571.51,5.57 571.15,5.68 571.16,5.68 571.16,5.68 569.46,5.89 567.76,6.10 566.69,6.18 565.62,6.26 564.46,6.23 563.31,6.19 562.21,6.16 561.12,6.12 559.35,6.24 557.59,6.37 554.71,6.63 551.82,6.89 548.95,7.11 546.08,7.33 543.32,7.45 540.56,7.57 536.26,7.86 531.96,8.15 527.13,8.44 522.31,8.73 518.78,8.97 515.25,9.21 510.87,9.46 506.49,9.71 500.33,9.90 494.18,10.08 489.68,10.08 485.19,10.08 479.29,10.08 473.39,10.08 466.81,10.08 460.24,10.08 456.07,10.08 451.90,10.08 448.04,10.08 444.18,10.08 440.39,10.08 436.59,10.08 431.58,10.08 426.57,10.08 421.42,10.08 416.27,10.08 411.45,10.08 406.63,10.08 401.92,10.08 397.22,10.08 392.10,10.08 386.98,10.08 380.90,10.08 374.81,10.07 366.45,10.07 358.09,10.06 350.39,10.05 342.69,10.04 333.92,10.01 325.15,9.98 316.57,9.91 307.98,9.83 300.51,9.66 293.05,9.50 282.89,9.10 272.72,8.70 262.21,8.31 251.69,7.93 243.69,7.56 235.69,7.20 226.88,6.87 218.07,6.53 208.71,6.29 199.35,6.05 190.01,6.03 180.67,6.01 172.10,5.96 163.53,5.91 154.73,5.80 145.94,5.68 138.02,5.40 130.10,5.13 122.11,5.01 114.12,4.89 106.08,4.61 98.03,4.32 89.74,4.19 81.45,4.05 73.37,3.72 65.29,3.39 56.29,3.14 47.29,2.89 41.43,2.82 35.57,2.75 31.19,2.57 26.82,2.38 23.09,2.36 19.35,2.34 16.51,2.25 13.68,2.16 11.19,1.91 8.71,1.65 6.54,1.76 4.38,1.87 3.20,1.82 2.03,1.76 1.06,1.72 0.10,1.68 -0.10,1.67 -0.30,1.65 -0.49,1.59 -0.69,1.53 -0.86,1.43 -1.03,1.32 -1.18,1.18 -1.32,1.04 -1.43,0.86 -1.53,0.69 -1.59,0.49 -1.65,0.30 -1.67,0.10 -1.68,-0.10 -1.64,-0.30 -1.61,-0.50 -1.52,-0.68 -1.44,-0.87 -1.31,-1.03 -1.19,-1.19 -1.03,-1.31 -0.87,-1.44 -0.68,-1.52 -0.50,-1.61 -0.30,-1.64 -0.10,-1.68 -0.10,-1.68 L -0.10,-1.68 Z"></path></g><g transform="translate(169.16070556640625 82.59492492675781) rotate(0 -1.2022705078125 29.366668701171875)" stroke="none"><path fill="#000000" d="M 2.53,0 Q 2.53,0 2.51,1.52 2.49,3.05 2.43,4.80 2.38,6.54 2.37,8.08 2.36,9.63 2.40,10.80 2.44,11.97 2.64,13.88 2.85,15.79 2.95,17.31 3.06,18.83 3.09,20.59 3.13,22.34 3.18,23.56 3.24,24.78 3.15,26.53 3.07,28.28 2.84,30.11 2.62,31.94 2.47,33.85 2.31,35.76 2.16,37.31 2.00,38.86 1.87,40.01 1.75,41.17 1.46,43.18 1.18,45.19 0.98,46.39 0.77,47.58 0.69,48.84 0.61,50.10 0.65,51.38 0.68,52.66 0.72,53.78 0.75,54.90 0.87,56.81 0.98,58.72 0.89,59.28 0.80,59.84 0.54,60.34 0.28,60.83 -0.12,61.22 -0.53,61.61 -1.04,61.85 -1.56,62.09 -2.12,62.15 -2.68,62.21 -3.23,62.09 -3.78,61.97 -4.26,61.68 -4.75,61.39 -5.11,60.96 -5.48,60.53 -5.69,60.01 -5.90,59.48 -5.93,58.92 -5.96,58.36 -5.81,57.81 -5.66,57.27 -5.35,56.80 -5.03,56.33 -4.58,55.99 -4.13,55.65 -3.60,55.47 -3.06,55.29 -2.50,55.29 -1.94,55.29 -1.40,55.46 -0.87,55.64 -0.42,55.99 0.02,56.33 0.34,56.79 0.66,57.26 0.81,57.80 0.96,58.35 0.93,58.91 0.90,59.47 0.69,60.00 0.49,60.52 0.12,60.95 -0.23,61.38 -0.72,61.67 -1.20,61.97 -1.75,62.09 -2.30,62.21 -2.86,62.15 -3.42,62.09 -3.94,61.85 -4.45,61.62 -4.86,61.23 -5.27,60.84 -5.53,60.34 -5.80,59.85 -5.89,59.29 -5.98,58.73 -5.98,58.73 -5.98,58.73 -6.06,56.56 -6.14,54.40 -6.11,53.26 -6.07,52.13 -6.02,51.00 -5.98,49.87 -5.78,48.44 -5.59,47.01 -5.27,45.63 -4.95,44.26 -4.68,42.41 -4.41,40.56 -4.23,38.62 -4.06,36.67 -3.81,35.09 -3.56,33.52 -3.50,32.21 -3.44,30.90 -3.20,29.46 -2.96,28.03 -2.80,26.40 -2.64,24.78 -2.59,23.56 -2.53,22.35 -2.54,21.14 -2.54,19.94 -2.48,18.72 -2.41,17.50 -2.38,15.85 -2.34,14.21 -2.39,13.09 -2.44,11.97 -2.40,10.80 -2.36,9.63 -2.37,8.08 -2.38,6.54 -2.43,4.80 -2.49,3.05 -2.51,1.52 -2.53,0 -2.49,-0.30 -2.45,-0.60 -2.35,-0.89 -2.24,-1.17 -2.06,-1.42 -1.89,-1.68 -1.66,-1.88 -1.43,-2.08 -1.16,-2.22 -0.89,-2.36 -0.60,-2.44 -0.30,-2.51 0.00,-2.51 0.30,-2.51 0.60,-2.44 0.89,-2.36 1.16,-2.22 1.43,-2.08 1.66,-1.88 1.89,-1.67 2.07,-1.42 2.24,-1.17 2.35,-0.89 2.46,-0.60 2.49,-0.30 2.53,0.00 2.53,0.00 L 2.53,0 Z"></path></g><g transform="translate(61.70330810546875 97.18251037597656) rotate(0 22.5 12.5)"><text x="0" y="18" font-family="Virgil, Segoe UI Emoji" font-size="20px" fill="#000000" text-anchor="start" style="white-space: pre;" direction="ltr">Logo</text></g><g transform="translate(191.08221435546875 105.27156066894531) rotate(0 29 12.5)"><text x="0" y="18" font-family="Virgil, Segoe UI Emoji" font-size="20px" fill="#000000" text-anchor="start" style="white-space: pre;" direction="ltr">Menu </text></g><g transform="translate(263.92950439453125 80.74250793457031) rotate(0 -0.312774658203125 31.452392578125)" stroke="none"><path fill="#000000" d="M 2.16,0.11 Q 2.16,0.11 1.91,2.52 1.67,4.93 1.35,8.19 1.02,11.44 0.86,14.73 0.70,18.02 0.44,20.85 0.18,23.68 0.15,25.37 0.11,27.06 0.09,28.17 0.06,29.27 0.15,30.73 0.24,32.19 0.71,34.38 1.18,36.58 1.56,38.05 1.94,39.51 2.20,40.67 2.46,41.83 2.68,43.30 2.90,44.77 3.13,45.97 3.35,47.17 3.48,48.34 3.61,49.51 3.73,51.16 3.86,52.81 4.09,54.23 4.32,55.65 4.40,56.94 4.47,58.22 4.11,61.06 3.75,63.89 3.51,64.34 3.28,64.80 2.91,65.16 2.54,65.51 2.07,65.73 1.61,65.95 1.10,66.01 0.59,66.07 0.09,65.96 -0.41,65.86 -0.85,65.60 -1.29,65.34 -1.63,64.95 -1.96,64.56 -2.16,64.08 -2.35,63.61 -2.38,63.10 -2.41,62.58 -2.28,62.09 -2.15,61.59 -1.86,61.16 -1.58,60.74 -1.17,60.42 -0.77,60.11 -0.28,59.94 0.20,59.77 0.71,59.77 1.22,59.76 1.71,59.92 2.20,60.08 2.61,60.39 3.02,60.70 3.31,61.12 3.60,61.54 3.75,62.04 3.89,62.53 3.86,63.04 3.84,63.56 3.65,64.04 3.47,64.51 3.14,64.91 2.81,65.30 2.37,65.57 1.93,65.84 1.43,65.95 0.93,66.07 0.42,66.02 -0.08,65.97 -0.55,65.75 -1.02,65.54 -1.39,65.19 -1.77,64.84 -2.01,64.39 -2.26,63.94 -2.34,63.43 -2.43,62.93 -2.35,62.42 -2.27,61.91 -2.27,61.91 -2.27,61.91 -2.04,60.69 -1.81,59.47 -1.76,58.12 -1.71,56.78 -1.68,55.64 -1.65,54.51 -1.71,53.12 -1.76,51.73 -1.82,49.91 -1.87,48.09 -2.07,46.91 -2.26,45.72 -2.69,43.09 -3.12,40.46 -3.31,38.84 -3.51,37.23 -3.64,36.01 -3.78,34.79 -3.85,32.67 -3.93,30.56 -3.57,28.72 -3.20,26.89 -3.06,25.17 -2.91,23.45 -2.75,20.69 -2.59,17.92 -2.54,14.55 -2.50,11.18 -2.34,7.95 -2.19,4.73 -2.17,2.30 -2.16,-0.11 -2.11,-0.37 -2.07,-0.62 -1.96,-0.86 -1.85,-1.10 -1.70,-1.31 -1.54,-1.51 -1.33,-1.68 -1.13,-1.84 -0.89,-1.95 -0.65,-2.06 -0.40,-2.10 -0.14,-2.15 0.11,-2.14 0.37,-2.13 0.62,-2.05 0.87,-1.97 1.09,-1.84 1.32,-1.71 1.50,-1.52 1.69,-1.34 1.82,-1.12 1.96,-0.90 2.04,-0.65 2.12,-0.40 2.14,-0.14 2.16,0.11 2.16,0.11 L 2.16,0.11 Z"></path></g><g transform="translate(286.915771484375 106.31410217285156) rotate(0 70.5 12.5)"><text x="0" y="18" font-family="Virgil, Segoe UI Emoji" font-size="20px" fill="#000000" text-anchor="start" style="white-space: pre;" direction="ltr">Random Donut</text></g><g transform="translate(484.89556884765625 86.47486877441406) rotate(0 1.09893798828125 31.89306640625)" stroke="none"><path fill="#000000" d="M 1.89,-0.12 Q 1.89,-0.12 1.98,1.88 2.06,3.90 2.06,6.46 2.05,9.03 2.03,11.78 2.00,14.53 1.98,18.20 1.95,21.87 1.93,25.67 1.91,29.47 1.90,32.75 1.88,36.04 1.91,37.95 1.95,39.86 2.07,40.99 2.18,42.12 2.35,43.49 2.52,44.85 2.78,46.00 3.03,47.14 3.23,48.39 3.42,49.64 3.62,51.18 3.81,52.71 4.00,53.77 4.20,54.82 4.35,55.93 4.51,57.05 4.73,58.23 4.94,59.42 5.17,61.37 5.39,63.33 5.38,63.85 5.37,64.37 5.19,64.86 5.02,65.36 4.69,65.77 4.37,66.18 3.93,66.46 3.49,66.74 2.98,66.87 2.47,67.00 1.95,66.96 1.43,66.92 0.95,66.72 0.47,66.52 0.08,66.17 -0.31,65.82 -0.57,65.37 -0.83,64.91 -0.93,64.40 -1.03,63.89 -0.96,63.37 -0.89,62.85 -0.66,62.38 -0.43,61.91 -0.07,61.54 0.29,61.17 0.76,60.93 1.23,60.70 1.74,60.62 2.26,60.55 2.78,60.64 3.29,60.74 3.75,60.99 4.20,61.25 4.56,61.64 4.91,62.02 5.12,62.50 5.33,62.98 5.37,63.50 5.42,64.03 5.29,64.53 5.17,65.04 4.89,65.48 4.61,65.93 4.21,66.26 3.80,66.59 3.31,66.77 2.82,66.95 2.30,66.97 1.77,66.99 1.27,66.84 0.77,66.69 0.35,66.38 -0.07,66.08 -0.38,65.66 -0.69,65.23 -0.84,64.73 -1.00,64.24 -1.00,64.24 -1.00,64.24 -1.27,61.32 -1.54,58.41 -1.58,57.13 -1.62,55.86 -1.68,54.61 -1.74,53.37 -1.78,51.83 -1.83,50.28 -1.75,48.77 -1.68,47.27 -1.63,46.06 -1.58,44.85 -1.40,43.49 -1.23,42.12 -1.12,40.99 -1.00,39.86 -0.97,37.95 -0.94,36.04 -0.96,32.76 -0.98,29.48 -1.01,25.68 -1.04,21.88 -1.08,18.22 -1.13,14.56 -1.20,11.83 -1.27,9.10 -1.39,6.62 -1.52,4.14 -1.70,2.13 -1.89,0.12 -1.88,-0.10 -1.86,-0.32 -1.80,-0.54 -1.73,-0.76 -1.61,-0.96 -1.50,-1.16 -1.34,-1.32 -1.18,-1.48 -0.98,-1.60 -0.79,-1.72 -0.57,-1.79 -0.35,-1.86 -0.12,-1.88 0.10,-1.89 0.32,-1.85 0.55,-1.81 0.76,-1.72 0.97,-1.63 1.15,-1.49 1.33,-1.35 1.47,-1.17 1.61,-0.99 1.71,-0.78 1.80,-0.57 1.85,-0.35 1.89,-0.12 1.89,-0.12 L 1.89,-0.12 Z"></path></g><g transform="translate(521.6065063476562 111.20384216308594) rotate(0 0.00004999999998744897 0.00005000000000165983)" stroke="none"><path fill="#000000" d="M 1.57,-1.57 Q 1.57,-1.57 1.77,-1.27 1.98,-0.98 2.09,-0.64 2.20,-0.29 2.19,0.05 2.18,0.41 2.05,0.75 1.93,1.09 1.70,1.37 1.48,1.65 1.18,1.84 0.87,2.04 0.52,2.12 0.18,2.21 -0.17,2.18 -0.53,2.15 -0.86,2.01 -1.19,1.87 -1.46,1.63 -1.73,1.39 -1.90,1.07 -2.08,0.76 -2.15,0.41 -2.21,0.05 -2.17,-0.29 -2.12,-0.65 -1.96,-0.97 -1.80,-1.29 -1.54,-1.54 -1.29,-1.80 -0.97,-1.96 -0.65,-2.12 -0.29,-2.17 0.06,-2.21 0.41,-2.15 0.76,-2.08 1.07,-1.90 1.39,-1.73 1.63,-1.46 1.87,-1.19 2.01,-0.86 2.15,-0.53 2.18,-0.17 2.21,0.18 2.12,0.52 2.03,0.87 1.84,1.18 1.65,1.48 1.37,1.70 1.09,1.93 0.75,2.05 0.41,2.18 0.05,2.19 -0.30,2.20 -0.64,2.09 -0.98,1.98 -1.27,1.77 -1.57,1.56 -1.57,1.57 -1.57,1.57 -1.73,1.35 -1.90,1.14 -2.01,0.90 -2.12,0.66 -2.16,0.39 -2.21,0.13 -2.20,-0.13 -2.18,-0.40 -2.10,-0.65 -2.02,-0.91 -1.88,-1.14 -1.74,-1.36 -1.55,-1.55 -1.36,-1.74 -1.14,-1.88 -0.91,-2.02 -0.65,-2.10 -0.40,-2.18 -0.13,-2.20 0.13,-2.21 0.39,-2.16 0.66,-2.12 0.90,-2.01 1.14,-1.90 1.35,-1.73 1.57,-1.57 1.57,-1.57 L 1.57,-1.57 Z"></path></g><g transform="translate(497.02093505859375 102.53343200683594) rotate(0 47 12.5)"><text x="0" y="18" font-family="Virgil, Segoe UI Emoji" font-size="20px" fill="#000000" text-anchor="start" style="white-space: pre;" direction="ltr">About US</text></g><g transform="translate(161.0362548828125 280.5078887939453) rotate(0 -0.7645263671875 23.487152099609375)" stroke="none"><path fill="#000000" d="M 1.98,0 Q 1.98,0 1.89,2.58 1.80,5.17 1.84,6.82 1.87,8.46 1.80,11.40 1.72,14.35 1.48,17.88 1.23,21.42 0.95,24.59 0.66,27.76 0.52,30.16 0.39,32.56 0.34,34.15 0.30,35.73 0.41,37.41 0.52,39.08 0.70,40.40 0.89,41.72 0.41,43.03 -0.05,44.34 0.31,44.50 0.68,44.65 0.99,44.91 1.29,45.18 1.50,45.53 1.70,45.87 1.78,46.27 1.86,46.66 1.81,47.06 1.76,47.46 1.59,47.82 1.42,48.19 1.14,48.48 0.86,48.77 0.50,48.95 0.14,49.13 -0.25,49.19 -0.65,49.25 -1.04,49.18 -1.44,49.11 -1.79,48.92 -2.15,48.73 -2.42,48.43 -2.69,48.14 -2.86,47.77 -3.02,47.40 -3.06,47.00 -3.10,46.60 -3.01,46.21 -2.91,45.82 -2.70,45.47 -2.49,45.13 -2.18,44.87 -1.87,44.62 -1.49,44.47 -1.12,44.33 -0.72,44.31 -0.31,44.30 0.06,44.41 0.45,44.52 0.78,44.75 1.11,44.98 1.35,45.30 1.59,45.63 1.71,46.01 1.84,46.39 1.83,46.80 1.83,47.20 1.69,47.58 1.56,47.96 1.31,48.28 1.06,48.59 0.73,48.82 0.39,49.04 0.00,49.14 -0.38,49.24 -0.78,49.22 -1.18,49.19 -1.18,49.19 -1.18,49.19 -2.47,46.09 -3.76,43.00 -3.72,41.65 -3.68,40.30 -3.48,38.93 -3.29,37.56 -3.13,36.51 -2.97,35.46 -2.75,33.95 -2.54,32.44 -2.47,29.98 -2.39,27.52 -2.19,24.38 -1.98,21.25 -1.85,17.80 -1.72,14.35 -1.80,11.40 -1.87,8.46 -1.84,6.82 -1.80,5.17 -1.89,2.58 -1.98,0 -1.95,-0.23 -1.92,-0.47 -1.84,-0.69 -1.75,-0.92 -1.62,-1.12 -1.48,-1.31 -1.30,-1.47 -1.12,-1.63 -0.91,-1.74 -0.70,-1.85 -0.47,-1.91 -0.23,-1.97 0.00,-1.97 0.23,-1.97 0.47,-1.91 0.70,-1.85 0.91,-1.74 1.12,-1.63 1.30,-1.47 1.48,-1.31 1.62,-1.12 1.75,-0.92 1.84,-0.69 1.92,-0.47 1.95,-0.23 1.98,0.00 1.98,0.00 L 1.98,0 Z"></path></g><g transform="translate(149.23651123046875 267.7832794189453) rotate(0 29.91754150390625 0.67803955078125)" stroke="none"><path fill="#000000" d="M 0.21,-1.79 Q 0.21,-1.79 3.43,-1.33 6.64,-0.88 11.04,-0.67 15.45,-0.46 19.58,-0.35 23.71,-0.25 28.82,-0.40 33.94,-0.56 38.97,-0.62 43.99,-0.68 48.37,-0.70 52.75,-0.71 56.08,-0.64 59.41,-0.57 59.62,-0.48 59.83,-0.38 60.00,-0.21 60.18,-0.05 60.29,0.15 60.40,0.35 60.43,0.59 60.47,0.82 60.43,1.05 60.39,1.28 60.28,1.49 60.17,1.70 60.00,1.86 59.83,2.02 59.62,2.12 59.40,2.22 59.17,2.24 58.94,2.27 58.71,2.22 58.48,2.17 58.27,2.05 58.07,1.92 57.92,1.74 57.77,1.56 57.68,1.35 57.60,1.13 57.58,0.89 57.57,0.66 57.63,0.43 57.70,0.20 57.83,0.01 57.96,-0.18 58.15,-0.32 58.34,-0.46 58.56,-0.53 58.78,-0.61 59.02,-0.61 59.25,-0.61 59.48,-0.53 59.70,-0.46 59.89,-0.31 60.07,-0.17 60.21,0.01 60.34,0.21 60.40,0.43 60.46,0.66 60.45,0.90 60.44,1.13 60.35,1.35 60.26,1.57 60.11,1.75 59.96,1.93 59.75,2.05 59.55,2.17 59.32,2.22 59.09,2.27 58.86,2.24 58.62,2.22 58.63,2.22 58.63,2.22 55.70,2.13 52.77,2.05 48.40,2.09 44.03,2.14 39.04,2.24 34.04,2.33 28.85,2.54 23.66,2.75 19.49,2.72 15.33,2.68 10.79,2.56 6.24,2.44 3.01,2.11 -0.21,1.79 -0.42,1.74 -0.63,1.68 -0.83,1.58 -1.02,1.48 -1.18,1.34 -1.35,1.19 -1.47,1.01 -1.59,0.83 -1.67,0.63 -1.75,0.43 -1.77,0.21 -1.80,0.00 -1.77,-0.21 -1.75,-0.43 -1.67,-0.63 -1.59,-0.83 -1.47,-1.01 -1.35,-1.19 -1.18,-1.34 -1.02,-1.48 -0.83,-1.58 -0.64,-1.68 -0.42,-1.74 -0.21,-1.79 -0.00,-1.79 0.21,-1.79 0.21,-1.79 L 0.21,-1.79 Z"></path></g><g transform="translate(148.68182373046875 325.70545959472656) rotate(0 23.486114501953125 0.177459716796875)" stroke="none"><path fill="#000000" d="M 0.14,-1.95 Q 0.14,-1.95 2.04,-1.77 3.93,-1.60 6.61,-1.46 9.29,-1.32 12.68,-1.24 16.07,-1.16 21.19,-1.10 26.31,-1.05 30.99,-1.20 35.67,-1.35 37.91,-1.41 40.15,-1.46 41.22,-1.61 42.29,-1.77 44.83,-1.83 47.37,-1.90 47.68,-1.82 47.99,-1.74 48.25,-1.56 48.52,-1.38 48.71,-1.13 48.91,-0.88 49.01,-0.57 49.12,-0.27 49.12,0.04 49.12,0.36 49.02,0.66 48.92,0.96 48.73,1.22 48.54,1.47 48.27,1.65 48.01,1.84 47.70,1.92 47.40,2.01 47.08,2.00 46.76,1.98 46.46,1.86 46.17,1.75 45.92,1.54 45.68,1.34 45.51,1.07 45.34,0.79 45.27,0.48 45.20,0.17 45.23,-0.14 45.27,-0.45 45.40,-0.74 45.53,-1.03 45.75,-1.27 45.97,-1.50 46.25,-1.65 46.53,-1.80 46.84,-1.86 47.16,-1.91 47.47,-1.86 47.79,-1.81 48.07,-1.67 48.35,-1.52 48.57,-1.29 48.80,-1.06 48.93,-0.77 49.07,-0.48 49.10,-0.16 49.14,0.14 49.07,0.46 49.01,0.77 48.85,1.04 48.68,1.32 48.44,1.53 48.20,1.73 47.90,1.85 47.61,1.97 47.29,1.99 46.97,2.01 46.97,2.01 46.97,2.01 44.68,1.79 42.39,1.57 41.32,1.48 40.25,1.39 38.02,1.49 35.79,1.59 31.05,1.81 26.31,2.02 21.17,2.05 16.04,2.08 12.62,2.12 9.21,2.15 6.42,2.16 3.64,2.18 1.74,2.06 -0.14,1.95 -0.38,1.90 -0.61,1.86 -0.82,1.76 -1.03,1.66 -1.22,1.51 -1.40,1.36 -1.54,1.17 -1.69,0.98 -1.78,0.77 -1.87,0.55 -1.91,0.32 -1.95,0.08 -1.93,-0.14 -1.92,-0.38 -1.84,-0.60 -1.77,-0.83 -1.64,-1.03 -1.52,-1.23 -1.35,-1.39 -1.18,-1.56 -0.98,-1.68 -0.77,-1.79 -0.54,-1.86 -0.32,-1.93 -0.08,-1.94 0.14,-1.95 0.14,-1.95 L 0.14,-1.95 Z"></path></g><g transform="translate(229.665771484375 276.6006622314453) rotate(0 37.2149658203125 31.684341430664062)" stroke="none"><path fill="#000000" d="M 1.76,-0.22 Q 1.76,-0.22 2.02,2.27 2.28,4.78 2.58,6.65 2.89,8.52 3.18,12.21 3.47,15.89 3.78,20.26 4.09,24.64 4.43,29.60 4.77,34.56 5.28,38.88 5.78,43.20 6.16,46.73 6.54,50.25 6.89,52.08 7.24,53.90 7.76,55.45 8.28,57.01 8.44,57.43 8.60,57.85 8.61,58.09 8.63,58.33 8.58,58.57 8.54,58.81 8.44,59.03 8.34,59.25 8.19,59.44 8.05,59.63 7.86,59.78 7.66,59.93 7.44,60.03 7.22,60.13 6.98,60.18 6.75,60.22 6.50,60.21 6.26,60.20 6.03,60.12 5.80,60.05 5.59,59.93 5.38,59.80 5.21,59.63 5.04,59.46 4.91,59.25 4.79,59.05 4.71,58.81 4.64,58.58 4.33,56.37 4.02,54.15 3.83,51.69 3.65,49.24 3.59,45.02 3.54,40.79 3.10,35.11 2.67,29.42 2.07,23.31 1.46,17.21 1.03,12.06 0.60,6.92 0.26,3.66 -0.07,0.40 -0.29,-1.32 -0.52,-3.06 -0.45,-3.64 -0.37,-4.22 -0.37,-4.43 -0.36,-4.64 -0.30,-4.84 -0.25,-5.05 -0.14,-5.23 -0.04,-5.42 0.09,-5.57 0.24,-5.72 0.42,-5.84 0.59,-5.95 0.79,-6.02 0.99,-6.09 1.20,-6.11 1.41,-6.13 1.62,-6.09 1.83,-6.06 2.02,-5.98 2.22,-5.90 2.39,-5.78 2.56,-5.65 2.69,-5.49 2.83,-5.33 2.92,-5.14 3.01,-4.95 3.06,-4.74 3.10,-4.53 6.05,-2.32 8.99,-0.10 12.00,3.16 15.02,6.42 18.30,10.03 21.59,13.64 24.91,17.11 28.24,20.57 31.94,23.67 35.63,26.77 37.47,28.28 39.31,29.79 40.80,30.50 42.29,31.21 43.41,31.22 44.54,31.24 45.51,30.31 46.49,29.38 47.75,27.75 49.01,26.12 50.19,24.33 51.37,22.54 52.50,20.57 53.63,18.59 54.05,17.16 54.46,15.72 54.75,14.66 55.03,13.59 55.18,12.79 55.33,11.99 55.45,11.77 55.57,11.54 55.74,11.35 55.91,11.16 56.12,11.02 56.33,10.87 56.56,10.78 56.80,10.69 57.05,10.66 57.31,10.63 57.56,10.66 57.81,10.69 58.05,10.78 58.29,10.87 58.49,11.02 58.70,11.16 58.87,11.35 59.04,11.54 59.16,11.77 59.28,11.99 59.34,12.24 59.40,12.49 59.40,12.74 59.40,12.99 59.34,13.24 59.28,13.49 60.00,15.45 60.73,17.41 61.32,20.30 61.91,23.18 62.94,27.52 63.97,31.86 65.25,37.42 66.53,42.97 67.82,47.83 69.11,52.70 70.51,56.68 71.90,60.67 72.82,62.84 73.73,65.00 74.30,65.93 74.86,66.86 73.73,66.57 72.60,66.28 72.66,65.99 72.71,65.70 72.86,65.44 73.00,65.18 73.22,64.99 73.44,64.79 73.71,64.67 73.98,64.55 74.28,64.53 74.57,64.51 74.86,64.58 75.14,64.65 75.39,64.81 75.64,64.97 75.83,65.20 76.01,65.43 76.11,65.70 76.21,65.98 76.22,66.27 76.23,66.57 76.14,66.85 76.06,67.13 75.89,67.37 75.71,67.61 75.47,67.78 75.24,67.96 74.95,68.04 74.67,68.13 74.38,68.12 74.08,68.11 73.81,68.01 73.53,67.91 73.30,67.73 73.07,67.54 72.91,67.29 72.75,67.04 72.68,66.76 72.61,66.47 72.63,66.18 72.66,65.88 72.77,65.61 72.89,65.34 73.09,65.12 73.28,64.90 73.54,64.76 73.80,64.61 74.09,64.56 74.37,64.50 74.67,64.54 74.96,64.58 75.22,64.71 75.49,64.84 75.70,65.05 75.90,65.26 76.04,65.52 76.17,65.79 76.21,66.08 76.25,66.37 76.25,66.37 76.25,66.37 74.02,67.34 71.79,68.30 71.42,67.24 71.05,66.18 70.04,63.94 69.03,61.70 67.53,57.63 66.03,53.55 64.62,48.67 63.22,43.78 61.80,38.29 60.39,32.80 59.16,28.49 57.93,24.18 57.08,21.33 56.23,18.47 55.89,17.02 55.55,15.56 55.44,13.77 55.33,11.99 55.45,11.77 55.57,11.54 55.74,11.35 55.91,11.16 56.12,11.02 56.33,10.87 56.56,10.78 56.80,10.69 57.05,10.66 57.31,10.63 57.56,10.66 57.81,10.69 58.05,10.78 58.29,10.87 58.49,11.02 58.70,11.16 58.87,11.35 59.04,11.54 59.16,11.77 59.28,11.99 59.34,12.24 59.40,12.49 59.40,12.74 59.40,12.99 59.34,13.24 59.28,13.49 58.92,14.18 58.57,14.87 58.11,15.85 57.65,16.83 57.00,18.45 56.35,20.08 55.25,22.17 54.15,24.27 53.00,26.24 51.84,28.21 50.37,30.28 48.90,32.36 47.08,33.65 45.25,34.94 44.04,34.91 42.84,34.88 41.85,34.37 40.87,33.87 39.22,32.91 37.57,31.94 35.70,30.44 33.83,28.94 30.00,25.76 26.17,22.58 22.78,19.12 19.39,15.66 16.07,12.11 12.75,8.56 9.70,5.40 6.66,2.24 4.50,0.09 2.34,-2.05 0.98,-3.13 -0.37,-4.22 -0.37,-4.43 -0.36,-4.64 -0.30,-4.84 -0.25,-5.05 -0.14,-5.23 -0.04,-5.41 0.09,-5.57 0.24,-5.72 0.42,-5.84 0.59,-5.95 0.79,-6.02 0.99,-6.09 1.20,-6.11 1.41,-6.13 1.62,-6.09 1.83,-6.06 2.02,-5.98 2.22,-5.90 2.39,-5.78 2.56,-5.65 2.69,-5.49 2.83,-5.33 2.92,-5.14 3.01,-4.95 3.06,-4.74 3.10,-4.53 2.84,-3.90 2.57,-3.26 2.66,-1.58 2.74,0.09 3.12,3.37 3.51,6.66 3.99,11.78 4.48,16.89 5.16,23.02 5.84,29.15 6.38,34.92 6.93,40.70 7.11,44.76 7.30,48.82 7.67,51.24 8.05,53.66 8.32,55.76 8.60,57.85 8.61,58.09 8.63,58.33 8.59,58.57 8.54,58.81 8.44,59.03 8.34,59.25 8.20,59.44 8.05,59.63 7.86,59.78 7.66,59.93 7.44,60.03 7.22,60.13 6.98,60.18 6.75,60.22 6.50,60.21 6.26,60.20 6.03,60.12 5.80,60.05 5.59,59.93 5.38,59.80 5.21,59.63 5.04,59.46 4.91,59.25 4.79,59.05 4.71,58.81 4.64,58.58 4.57,57.55 4.50,56.51 4.42,55.45 4.34,54.38 4.07,52.47 3.79,50.56 3.39,47.05 2.99,43.54 2.43,39.16 1.88,34.78 1.49,29.82 1.10,24.87 0.73,20.52 0.35,16.18 -0.01,12.61 -0.38,9.05 -0.68,7.13 -0.99,5.21 -1.37,2.71 -1.76,0.22 -1.76,0.01 -1.76,-0.20 -1.71,-0.40 -1.66,-0.61 -1.57,-0.80 -1.47,-0.99 -1.33,-1.16 -1.19,-1.32 -1.01,-1.44 -0.83,-1.56 -0.63,-1.64 -0.43,-1.72 -0.22,-1.75 -0.01,-1.77 0.19,-1.75 0.41,-1.73 0.61,-1.65 0.81,-1.58 0.99,-1.46 1.16,-1.34 1.31,-1.18 1.45,-1.02 1.55,-0.83 1.65,-0.64 1.71,-0.43 1.76,-0.22 1.76,-0.22 L 1.76,-0.22 Z"></path></g><g transform="translate(358.0889892578125 286.85679626464844) rotate(0 -0.458709716796875 29.266159057617188)" stroke="none"><path fill="#000000" d="M 0.90,1.49 Q 0.90,1.49 -2.51,3.48 -5.93,5.47 -8.29,7.02 -10.65,8.57 -13.09,10.66 -15.53,12.75 -16.79,14.17 -18.05,15.58 -18.65,16.79 -19.25,18.00 -19.84,19.33 -20.43,20.66 -21.01,22.46 -21.59,24.26 -22.45,27.29 -23.31,30.31 -23.82,32.93 -24.33,35.54 -24.51,37.43 -24.70,39.33 -24.72,40.91 -24.74,42.49 -24.33,43.57 -23.93,44.66 -23.17,45.94 -22.41,47.23 -21.51,48.42 -20.62,49.61 -19.65,50.77 -18.68,51.93 -17.92,52.75 -17.17,53.56 -15.96,54.31 -14.76,55.06 -13.64,55.36 -12.53,55.67 -10.70,55.71 -8.86,55.75 -7.39,55.55 -5.91,55.35 -4.57,54.77 -3.23,54.20 -1.39,53.41 0.45,52.62 2.42,51.87 4.39,51.12 7.17,50.11 9.95,49.09 11.90,48.27 13.85,47.45 16.21,45.85 18.57,44.24 19.91,43.15 21.25,42.06 22.10,41.10 22.95,40.14 22.61,38.66 22.27,37.18 19.71,35.63 17.15,34.07 14.47,33.22 11.78,32.37 9.87,31.99 7.95,31.61 6.75,31.55 5.55,31.49 4.21,31.47 2.88,31.45 1.81,31.67 0.75,31.88 0.72,31.88 0.70,31.89 0.38,31.86 0.06,31.83 -0.24,31.72 -0.54,31.61 -0.81,31.43 -1.08,31.26 -1.29,31.02 -1.51,30.78 -1.67,30.50 -1.82,30.22 -1.91,29.91 -1.99,29.60 -2.00,29.28 -2.00,28.96 -1.93,28.64 -1.86,28.33 -1.72,28.04 -1.58,27.76 -1.37,27.51 -1.16,27.27 -0.90,27.08 -0.64,26.89 -0.34,26.77 -0.04,26.65 0.26,26.60 0.58,26.56 2.22,26.47 3.87,26.37 5.44,26.30 7.02,26.23 8.43,25.99 9.85,25.75 11.36,25.55 12.88,25.34 14.61,25.17 16.34,25.01 17.50,24.87 18.65,24.73 20.15,24.58 21.66,24.43 23.64,24.39 25.62,24.35 26.06,24.42 26.50,24.49 26.89,24.70 27.28,24.90 27.59,25.23 27.90,25.55 28.09,25.95 28.27,26.35 28.32,26.80 28.37,27.24 28.28,27.67 28.18,28.11 27.96,28.49 27.73,28.87 27.39,29.16 27.05,29.45 26.64,29.61 26.23,29.78 25.78,29.81 25.34,29.83 24.91,29.71 24.48,29.60 24.11,29.35 23.74,29.10 23.47,28.75 23.20,28.39 23.06,27.97 22.92,27.55 22.92,27.11 22.91,26.66 23.05,26.24 23.19,25.82 23.46,25.46 23.73,25.11 24.10,24.86 24.46,24.61 24.89,24.49 25.32,24.37 25.77,24.39 26.21,24.41 26.62,24.58 27.04,24.74 27.38,25.03 27.72,25.31 27.95,25.69 28.18,26.07 28.27,26.51 28.37,26.94 28.33,27.38 28.28,27.82 28.09,28.23 27.91,28.63 27.60,28.96 27.30,29.28 26.91,29.49 26.51,29.70 26.08,29.77 25.64,29.85 25.64,29.85 25.64,29.85 23.16,29.81 20.68,29.77 18.83,29.81 16.98,29.86 15.30,30.14 13.61,30.43 12.22,30.64 10.83,30.86 9.19,31.21 7.54,31.56 5.70,31.82 3.87,32.08 2.28,31.98 0.70,31.89 0.38,31.86 0.06,31.83 -0.24,31.72 -0.54,31.61 -0.81,31.43 -1.08,31.26 -1.29,31.02 -1.51,30.79 -1.67,30.50 -1.82,30.22 -1.91,29.91 -1.99,29.60 -2.00,29.28 -2.00,28.96 -1.93,28.65 -1.86,28.33 -1.72,28.04 -1.58,27.76 -1.37,27.51 -1.16,27.27 -0.90,27.08 -0.64,26.89 -0.34,26.77 -0.04,26.65 0.26,26.60 0.58,26.56 0.76,26.58 0.93,26.60 2.01,26.63 3.08,26.66 4.54,27.01 6.00,27.36 7.27,27.57 8.55,27.79 10.70,28.04 12.85,28.29 15.81,28.94 18.76,29.58 22.62,31.51 26.47,33.44 26.86,35.05 27.25,36.65 27.27,38.46 27.30,40.28 26.70,41.68 26.10,43.09 24.83,44.02 23.57,44.96 22.17,46.05 20.78,47.15 18.05,48.87 15.31,50.59 13.34,51.60 11.37,52.60 8.72,53.78 6.07,54.97 4.31,55.85 2.55,56.73 0.76,57.80 -1.02,58.87 -3.95,59.98 -6.89,61.10 -9.05,61.06 -11.21,61.03 -12.60,60.86 -13.98,60.70 -15.00,60.33 -16.02,59.95 -17.49,58.89 -18.97,57.83 -19.74,57.06 -20.51,56.30 -21.17,55.38 -21.83,54.45 -22.81,53.17 -23.80,51.88 -24.76,50.46 -25.72,49.04 -26.60,47.33 -27.49,45.61 -27.79,43.99 -28.10,42.36 -27.94,40.68 -27.79,39.00 -27.56,37.00 -27.34,35.00 -26.88,32.25 -26.43,29.49 -25.66,26.37 -24.89,23.26 -24.29,21.15 -23.68,19.04 -22.91,17.66 -22.14,16.29 -21.21,14.93 -20.29,13.57 -18.88,12.05 -17.48,10.52 -14.93,8.27 -12.38,6.02 -10.00,4.34 -7.61,2.67 -4.25,0.58 -0.90,-1.49 -0.70,-1.58 -0.51,-1.67 -0.30,-1.70 -0.10,-1.74 0.10,-1.73 0.31,-1.72 0.52,-1.65 0.72,-1.59 0.90,-1.48 1.08,-1.37 1.23,-1.22 1.37,-1.07 1.48,-0.89 1.59,-0.71 1.65,-0.51 1.72,-0.31 1.73,-0.10 1.74,0.10 1.70,0.31 1.66,0.52 1.58,0.71 1.49,0.90 1.36,1.07 1.23,1.23 1.06,1.36 0.90,1.49 0.90,1.49 L 0.90,1.49 Z"></path></g><g transform="translate(155.837158203125 11.776438127484255) rotate(0 92.58465576171875 20.30365257932428)"><text x="0" y="28.607305158648565" font-family="Virgil, Segoe UI Emoji" font-size="32.48584412691885px" fill="#000000" text-anchor="start" style="white-space: pre;" direction="ltr">Home Page </text></g><g transform="translate(649.7756958007812 93.37025451660156) rotate(0 14.27618408203125 223.79989624023438)" stroke="none"><path fill="#000000" d="M 1.54,-0.24 Q 1.54,-0.24 2.09,3.46 2.65,7.18 3.09,10.47 3.53,13.76 4.17,19.72 4.81,25.68 6.53,41.33 8.25,56.97 9.97,70.75 11.68,84.52 13.66,98.66 15.64,112.80 17.75,128.25 19.87,143.71 21.77,158.57 23.67,173.43 24.97,183.16 26.27,192.90 27.30,203.33 28.34,213.76 28.78,220.83 29.22,227.90 29.40,232.60 29.59,237.31 29.67,244.16 29.75,251.00 29.78,260.18 29.81,269.36 29.58,279.55 29.35,289.74 29.01,300.91 28.67,312.09 28.28,324.81 27.90,337.53 27.74,347.47 27.57,357.41 27.51,363.04 27.44,368.68 27.41,373.60 27.38,378.53 27.36,383.69 27.35,388.86 27.35,392.44 27.34,396.01 27.34,398.34 27.34,400.66 27.02,403.42 26.71,406.18 26.70,407.57 26.68,408.97 26.59,410.18 26.50,411.39 26.10,413.29 25.70,415.18 25.53,416.49 25.36,417.80 25.15,419.21 24.93,420.61 24.13,425.09 23.34,429.57 22.62,433.45 21.89,437.33 21.31,440.08 20.72,442.83 20.59,444.16 20.46,445.50 20.36,446.59 20.26,447.68 20.18,447.92 20.10,448.16 19.96,448.37 19.83,448.58 19.65,448.76 19.47,448.93 19.25,449.06 19.04,449.18 18.80,449.25 18.56,449.32 18.31,449.33 18.06,449.35 17.81,449.30 17.56,449.25 17.34,449.14 17.11,449.03 16.92,448.87 16.72,448.72 16.57,448.52 16.42,448.32 16.32,448.09 16.22,447.86 16.18,447.61 16.14,447.36 16.16,447.11 16.18,446.86 15.99,444.38 15.80,441.89 15.86,441.51 15.92,441.13 16.10,440.79 16.28,440.45 16.56,440.18 16.84,439.92 17.19,439.75 17.53,439.59 17.92,439.55 18.30,439.51 18.68,439.59 19.05,439.67 19.38,439.87 19.71,440.07 19.96,440.36 20.21,440.65 20.36,441.01 20.50,441.37 20.52,441.75 20.54,442.14 20.44,442.51 20.34,442.88 20.12,443.20 19.91,443.52 19.60,443.75 19.30,443.98 18.93,444.11 18.57,444.23 18.18,444.23 17.80,444.23 17.43,444.11 17.07,443.99 16.76,443.76 16.45,443.52 16.24,443.21 16.02,442.89 15.91,442.52 15.81,442.15 15.83,441.76 15.85,441.38 15.99,441.02 16.13,440.66 16.38,440.37 16.63,440.07 16.96,439.87 17.29,439.67 17.67,439.59 18.04,439.51 18.43,439.55 18.81,439.59 19.16,439.75 19.51,439.91 19.79,440.17 20.07,440.44 20.25,440.78 20.43,441.12 20.49,441.50 20.56,441.88 20.56,441.88 20.56,441.88 20.50,443.48 20.44,445.08 20.35,446.38 20.26,447.68 20.18,447.92 20.10,448.16 19.96,448.37 19.83,448.58 19.65,448.76 19.47,448.93 19.25,449.06 19.04,449.18 18.80,449.25 18.56,449.32 18.31,449.33 18.06,449.35 17.81,449.30 17.56,449.25 17.34,449.14 17.11,449.03 16.92,448.88 16.72,448.72 16.57,448.52 16.42,448.32 16.32,448.09 16.22,447.86 16.18,447.61 16.14,447.36 16.16,447.11 16.18,446.86 16.57,445.89 16.96,444.91 17.28,443.57 17.60,442.22 18.08,439.49 18.56,436.76 19.14,432.88 19.72,429.00 20.34,424.42 20.96,419.83 21.29,418.46 21.61,417.09 21.94,415.78 22.27,414.47 22.65,412.64 23.02,410.81 23.31,409.74 23.60,408.68 23.85,407.27 24.10,405.87 24.41,403.27 24.71,400.66 24.71,398.33 24.71,396.01 24.72,392.43 24.73,388.86 24.74,383.68 24.75,378.51 24.78,373.58 24.81,368.65 24.88,363.01 24.95,357.37 25.11,347.41 25.27,337.45 25.66,324.73 26.04,312.01 26.38,300.84 26.72,289.68 26.95,279.52 27.18,269.37 27.15,260.20 27.11,251.03 27.03,244.22 26.95,237.41 26.77,232.74 26.58,228.06 26.14,221.04 25.70,214.02 24.67,203.64 23.64,193.25 22.33,183.51 21.03,173.77 19.12,158.92 17.22,144.07 15.09,128.62 12.97,113.17 10.97,99.02 8.97,84.86 7.24,71.07 5.51,57.28 3.76,41.63 2.00,25.99 1.34,20.08 0.67,14.16 0.19,10.91 -0.29,7.65 -0.91,3.94 -1.54,0.24 -1.54,0.05 -1.55,-0.13 -1.51,-0.31 -1.48,-0.49 -1.39,-0.66 -1.31,-0.83 -1.19,-0.98 -1.07,-1.13 -0.92,-1.24 -0.77,-1.35 -0.60,-1.42 -0.42,-1.50 -0.24,-1.53 -0.05,-1.56 0.12,-1.54 0.31,-1.52 0.49,-1.46 0.67,-1.40 0.83,-1.30 0.99,-1.20 1.12,-1.07 1.25,-0.93 1.34,-0.77 1.43,-0.60 1.49,-0.42 1.54,-0.24 1.54,-0.24 L 1.54,-0.24 Z"></path></g><g transform="translate(647.3041381835938 86.40116882324219) rotate(0 214.52581787109375 242.30096435546875)" stroke="none"><path fill="#000000" d="M 0,-1.05 Q 0,-1.05 1.86,-1.07 3.72,-1.09 6.49,-1.05 9.26,-1.01 17.34,-0.98 25.42,-0.94 36.36,-0.92 47.31,-0.90 59.47,-0.88 71.64,-0.87 84.61,-0.85 97.58,-0.84 110.90,-0.83 124.22,-0.82 139.14,-0.82 154.06,-0.81 169.66,-0.81 185.26,-0.80 200.55,-1.35 215.83,-1.89 229.26,-2.65 242.68,-3.42 255.91,-4.01 269.14,-4.60 285.47,-4.86 301.79,-5.11 314.77,-5.48 327.75,-5.85 339.03,-6.26 350.31,-6.68 359.71,-6.85 369.12,-7.03 377.43,-7.10 385.74,-7.18 392.70,-7.21 399.67,-7.24 404.90,-7.26 410.13,-7.27 413.32,-7.27 416.50,-7.28 417.91,-7.40 419.33,-7.52 420.51,-7.59 421.70,-7.67 422.72,-7.09 423.74,-6.50 424.04,-5.26 424.34,-4.03 424.42,-2.95 424.50,-1.87 424.50,-0.22 424.49,1.41 424.37,4.24 424.25,7.06 424.49,9.98 424.73,12.89 424.94,15.37 425.15,17.84 425.52,20.65 425.90,23.46 426.82,34.17 427.74,44.88 428.12,50.33 428.50,55.78 428.65,59.02 428.80,62.25 428.86,65.77 428.92,69.29 429.13,73.51 429.34,77.74 429.43,84.48 429.51,91.23 429.76,98.08 430.01,104.93 430.12,109.39 430.22,113.85 430.26,121.92 430.31,130.00 430.32,137.12 430.34,144.25 430.35,151.91 430.36,159.57 430.36,166.84 430.36,174.11 430.36,181.83 430.36,189.56 430.13,197.81 429.90,206.06 429.57,215.14 429.23,224.22 429.09,237.05 428.95,249.88 428.89,264.95 428.83,280.03 428.80,289.85 428.78,299.67 428.77,310.36 428.76,321.05 428.75,332.11 428.75,343.17 428.75,350.66 428.74,358.15 428.74,368.76 428.74,379.36 428.53,387.59 428.31,395.81 427.78,403.33 427.25,410.86 426.61,417.44 425.96,424.03 425.33,428.97 424.69,433.91 424.22,438.73 423.75,443.56 423.36,448.06 422.98,452.55 422.62,456.90 422.27,461.25 422.12,467.36 421.97,473.46 421.91,477.29 421.84,481.11 421.74,483.90 421.64,486.68 421.02,488.01 420.40,489.35 419.36,490.09 418.32,490.83 416.00,491.17 413.68,491.50 410.55,491.42 407.42,491.33 404.12,491.26 400.82,491.19 397.35,490.77 393.88,490.34 387.24,489.39 380.61,488.44 369.72,487.21 358.84,485.98 346.13,484.91 333.42,483.83 319.64,483.10 305.87,482.37 291.07,482.33 276.27,482.29 263.04,482.27 249.80,482.25 238.71,482.24 227.61,482.23 215.41,482.22 203.21,482.22 194.59,482.21 185.97,482.21 179.46,482.21 172.94,482.21 169.07,482.20 165.19,482.20 162.48,482.35 159.76,482.49 158.10,482.73 156.45,482.97 155.25,483.23 154.05,483.50 152.44,483.79 150.84,484.09 147.58,484.55 144.32,485.01 140.04,485.43 135.75,485.84 129.64,486.49 123.53,487.13 116.63,487.88 109.72,488.64 103.06,489.42 96.40,490.20 89.24,490.53 82.08,490.86 77.92,491.00 73.75,491.13 71.67,491.14 69.58,491.15 68.02,491.28 66.46,491.41 65.28,491.32 64.11,491.24 62.47,491.00 60.83,490.77 57.83,490.15 54.83,489.54 52.20,489.07 49.56,488.60 47.00,488.04 44.45,487.48 42.42,487.00 40.40,486.52 39.28,486.37 38.16,486.22 36.90,486.04 35.64,485.87 34.46,485.65 33.28,485.44 31.47,484.86 29.67,484.29 29.30,484.17 28.93,484.05 28.61,483.82 28.30,483.59 28.08,483.27 27.86,482.95 27.75,482.57 27.64,482.20 27.66,481.81 27.68,481.42 27.82,481.06 27.96,480.69 28.20,480.40 28.45,480.10 28.79,479.89 29.12,479.69 29.50,479.60 29.88,479.51 30.26,479.55 30.65,479.59 31.01,479.75 31.36,479.91 31.65,480.17 31.93,480.44 32.12,480.78 32.30,481.12 32.37,481.50 32.44,481.89 32.38,482.27 32.32,482.66 32.14,483.00 31.96,483.35 31.68,483.62 31.40,483.89 31.05,484.06 30.70,484.23 30.31,484.27 29.93,484.32 29.55,484.24 29.16,484.16 28.83,483.96 28.49,483.76 28.24,483.47 27.98,483.18 27.83,482.82 27.69,482.46 27.66,482.07 27.64,481.68 27.74,481.30 27.84,480.93 28.05,480.60 28.27,480.28 28.57,480.04 28.88,479.80 29.25,479.67 29.62,479.54 30.01,479.54 30.40,479.53 30.40,479.53 30.40,479.53 32.53,480.25 34.66,480.96 35.73,481.41 36.80,481.85 37.89,482.30 38.98,482.75 40.03,483.11 41.09,483.47 43.08,483.90 45.07,484.32 47.57,484.76 50.07,485.20 52.77,485.53 55.46,485.85 58.44,486.26 61.41,486.66 63.15,486.90 64.89,487.14 65.90,487.50 66.90,487.86 68.24,488.12 69.58,488.38 71.62,488.39 73.66,488.40 77.80,488.25 81.95,488.10 89.01,487.75 96.07,487.40 102.73,486.58 109.39,485.76 116.30,484.95 123.20,484.15 129.31,483.43 135.42,482.72 139.60,482.22 143.79,481.72 147.04,481.13 150.29,480.53 151.95,480.33 153.61,480.12 154.89,480.07 156.17,480.01 157.90,479.93 159.62,479.86 162.41,479.71 165.19,479.56 169.07,479.56 172.94,479.55 179.46,479.55 185.97,479.55 194.59,479.55 203.21,479.55 215.41,479.54 227.61,479.54 238.71,479.54 249.81,479.54 263.04,479.54 276.28,479.55 291.14,479.57 306.01,479.58 319.83,480.29 333.65,480.99 346.40,482.02 359.16,483.06 370.09,484.24 381.02,485.41 387.62,486.28 394.22,487.14 397.52,487.45 400.81,487.75 404.11,487.67 407.40,487.59 410.49,487.48 413.58,487.37 415.19,487.49 416.80,487.61 417.93,487.01 419.07,486.41 419.14,483.74 419.21,481.07 419.28,477.23 419.34,473.40 419.50,467.22 419.65,461.04 420.00,456.68 420.36,452.32 420.75,447.81 421.14,443.31 421.61,438.44 422.09,433.57 422.72,428.67 423.35,423.77 423.99,417.22 424.63,410.67 425.16,403.20 425.69,395.74 425.90,387.55 426.11,379.36 426.12,368.76 426.12,358.15 426.12,350.66 426.12,343.17 426.12,332.11 426.13,321.05 426.14,310.36 426.15,299.67 426.18,289.84 426.20,280.02 426.26,264.93 426.32,249.85 426.46,236.99 426.60,224.12 426.94,215.05 427.27,205.98 427.50,197.77 427.73,189.56 427.72,181.83 427.72,174.11 427.72,166.84 427.71,159.58 427.70,151.92 427.69,144.25 427.67,137.13 427.65,130.01 427.60,121.96 427.55,113.91 427.44,109.47 427.33,105.03 427.07,98.14 426.81,91.26 426.71,84.57 426.61,77.88 426.38,73.61 426.15,69.35 426.06,65.88 425.97,62.41 425.78,59.20 425.59,56.00 425.16,50.58 424.73,45.15 423.75,34.54 422.76,23.94 422.28,21.08 421.80,18.23 421.45,15.76 421.10,13.30 420.66,10.18 420.22,7.07 420.10,4.25 419.97,1.43 419.95,-0.18 419.93,-1.80 420.68,-2.86 421.43,-3.91 420.38,-4.17 419.33,-4.43 417.92,-4.54 416.50,-4.65 413.32,-4.65 410.14,-4.64 404.91,-4.63 399.68,-4.61 392.72,-4.58 385.76,-4.55 377.47,-4.47 369.17,-4.40 359.79,-4.22 350.40,-4.04 339.11,-3.63 327.82,-3.21 314.83,-2.84 301.83,-2.47 285.55,-2.22 269.26,-1.96 256.04,-1.37 242.83,-0.77 229.38,-0.00 215.93,0.76 200.60,1.31 185.26,1.86 169.66,1.87 154.06,1.87 139.14,1.88 124.22,1.89 110.90,1.89 97.58,1.90 84.61,1.92 71.64,1.93 59.47,1.94 47.31,1.96 36.36,1.98 25.42,2.01 17.34,2.04 9.26,2.07 6.49,2.11 3.72,2.16 1.86,2.13 0,2.11 -0.18,2.09 -0.37,2.06 -0.55,2.00 -0.73,1.93 -0.89,1.82 -1.05,1.71 -1.17,1.57 -1.30,1.43 -1.39,1.26 -1.48,1.09 -1.52,0.90 -1.57,0.72 -1.57,0.53 -1.57,0.34 -1.52,0.15 -1.48,-0.03 -1.39,-0.19 -1.30,-0.36 -1.17,-0.51 -1.05,-0.65 -0.89,-0.76 -0.73,-0.87 -0.55,-0.93 -0.37,-1.00 -0.18,-1.02 0.00,-1.05 0.00,-1.05 L 0,-1.05 Z"></path></g><g transform="translate(702.1818237304688 10) rotate(0 112.21266784667978 24.394058227539062)"><text x="0" y="33.78811645507812" font-family="Virgil, Segoe UI Emoji" font-size="39.03049316406253px" fill="#000000" text-anchor="start" style="white-space: pre;" direction="ltr">Menu Page </text></g><g transform="translate(680.6318969726562 130.4069366455078) rotate(0 85 12.5)"><text x="0" y="18" font-family="Virgil, Segoe UI Emoji" font-size="20px" fill="#000000" text-anchor="start" style="white-space: pre;" direction="ltr">search by name  </text></g><g transform="translate(777.2084350585938 173.2932891845703) rotate(0 0.00004999999998744897 0.00005000000000165983)" stroke="none"><path fill="#000000" d="M 1.57,-1.57 Q 1.57,-1.57 1.77,-1.27 1.98,-0.98 2.09,-0.64 2.20,-0.29 2.19,0.05 2.18,0.41 2.05,0.75 1.93,1.09 1.70,1.37 1.48,1.65 1.18,1.84 0.87,2.04 0.52,2.12 0.18,2.21 -0.17,2.18 -0.53,2.15 -0.86,2.01 -1.19,1.87 -1.46,1.63 -1.73,1.39 -1.90,1.07 -2.08,0.76 -2.15,0.41 -2.21,0.05 -2.17,-0.29 -2.12,-0.65 -1.96,-0.97 -1.80,-1.29 -1.54,-1.54 -1.29,-1.80 -0.97,-1.96 -0.65,-2.12 -0.29,-2.17 0.06,-2.21 0.41,-2.15 0.76,-2.08 1.07,-1.90 1.39,-1.73 1.63,-1.46 1.87,-1.19 2.01,-0.86 2.15,-0.53 2.18,-0.17 2.21,0.18 2.12,0.52 2.03,0.87 1.84,1.18 1.65,1.48 1.37,1.70 1.09,1.93 0.75,2.05 0.41,2.18 0.05,2.19 -0.30,2.20 -0.64,2.09 -0.98,1.98 -1.27,1.77 -1.57,1.56 -1.57,1.57 -1.57,1.57 -1.73,1.35 -1.90,1.14 -2.01,0.90 -2.12,0.66 -2.16,0.39 -2.21,0.13 -2.20,-0.13 -2.18,-0.40 -2.10,-0.65 -2.02,-0.91 -1.88,-1.14 -1.74,-1.36 -1.55,-1.55 -1.36,-1.74 -1.14,-1.88 -0.91,-2.02 -0.65,-2.10 -0.40,-2.18 -0.13,-2.20 0.13,-2.21 0.39,-2.16 0.66,-2.12 0.90,-2.01 1.14,-1.90 1.35,-1.73 1.57,-1.57 1.57,-1.57 L 1.57,-1.57 Z"></path></g><g transform="translate(672.7582397460938 121.12290954589844) rotate(0 2.06396484375 24.787551879882812)" stroke="none"><path fill="#000000" d="M 2.41,0 Q 2.41,0 2.45,1.10 2.49,2.20 2.55,4.40 2.61,6.61 2.65,8.89 2.68,11.16 2.66,12.99 2.64,14.81 2.70,16.00 2.77,17.19 2.80,18.51 2.83,19.84 2.75,21.44 2.67,23.03 2.73,24.76 2.78,26.49 3.00,27.84 3.21,29.20 3.57,30.53 3.92,31.86 4.34,33.58 4.75,35.30 5.00,36.47 5.24,37.64 5.53,38.87 5.82,40.10 6.14,41.72 6.46,43.33 6.55,45.21 6.65,47.08 6.95,47.55 7.25,48.01 7.38,48.55 7.52,49.08 7.48,49.63 7.43,50.18 7.22,50.69 7.00,51.19 6.63,51.60 6.27,52.02 5.79,52.29 5.31,52.56 4.77,52.67 4.22,52.77 3.68,52.70 3.13,52.63 2.64,52.38 2.14,52.14 1.75,51.75 1.36,51.36 1.11,50.87 0.87,50.38 0.79,49.83 0.72,49.28 0.82,48.74 0.92,48.20 1.19,47.72 1.46,47.24 1.87,46.87 2.28,46.50 2.79,46.28 3.29,46.06 3.84,46.02 4.39,45.97 4.93,46.10 5.46,46.23 5.93,46.53 6.39,46.82 6.74,47.25 7.08,47.68 7.28,48.20 7.47,48.72 7.48,49.27 7.50,49.82 7.34,50.34 7.18,50.87 6.86,51.32 6.54,51.77 6.09,52.09 5.64,52.42 5.12,52.58 4.59,52.74 4.04,52.73 3.49,52.71 2.97,52.53 2.45,52.34 2.02,51.99 1.59,51.65 1.59,51.65 1.59,51.65 0.77,48.44 -0.04,45.23 -0.08,43.83 -0.13,42.43 -0.48,41.30 -0.82,40.17 -0.93,38.98 -1.04,37.78 -1.31,36.29 -1.57,34.79 -1.88,33.37 -2.18,31.94 -2.35,30.47 -2.52,29.00 -2.54,27.71 -2.56,26.43 -2.45,24.65 -2.33,22.86 -2.30,21.38 -2.27,19.90 -2.28,18.62 -2.28,17.35 -2.29,16.19 -2.29,15.03 -2.49,13.10 -2.68,11.16 -2.65,8.89 -2.61,6.61 -2.55,4.40 -2.49,2.20 -2.45,1.10 -2.41,0 -2.38,-0.28 -2.34,-0.57 -2.24,-0.85 -2.13,-1.12 -1.97,-1.36 -1.80,-1.60 -1.59,-1.79 -1.37,-1.98 -1.11,-2.12 -0.85,-2.25 -0.57,-2.32 -0.29,-2.39 0.00,-2.39 0.29,-2.39 0.57,-2.32 0.85,-2.25 1.11,-2.12 1.37,-1.98 1.59,-1.79 1.80,-1.60 1.97,-1.36 2.13,-1.12 2.24,-0.85 2.34,-0.57 2.38,-0.28 2.41,0.00 2.41,0.00 L 2.41,0 Z"></path></g><g transform="translate(672.8190307617188 119.31422424316406) rotate(0 88.15252685546875 27.865859985351562)" stroke="none"><path fill="#000000" d="M 0.21,-2.01 Q 0.21,-2.01 1.32,-1.97 2.43,-1.92 3.63,-1.92 4.83,-1.92 6.43,-1.89 8.03,-1.86 9.78,-1.82 11.52,-1.78 13.07,-1.79 14.62,-1.79 16.28,-1.90 17.95,-2.00 19.54,-2.08 21.13,-2.15 23.10,-2.27 25.08,-2.38 27.68,-2.38 30.28,-2.39 33.05,-2.36 35.81,-2.33 38.94,-2.30 42.07,-2.27 44.75,-2.24 47.43,-2.21 50.46,-2.18 53.49,-2.16 55.04,-2.25 56.59,-2.34 57.70,-2.36 58.80,-2.37 60.17,-2.49 61.53,-2.60 62.61,-2.65 63.69,-2.71 65.24,-2.70 66.79,-2.70 69.76,-2.38 72.73,-2.07 74.74,-1.92 76.75,-1.76 79.26,-1.65 81.77,-1.54 88.41,-1.47 95.05,-1.40 98.83,-1.35 102.61,-1.31 104.73,-1.28 106.85,-1.24 108.01,-1.36 109.17,-1.47 110.73,-1.53 112.28,-1.59 114.39,-1.75 116.50,-1.91 117.82,-1.95 119.13,-2.00 121.06,-1.93 123.00,-1.85 124.91,-1.80 126.83,-1.76 128.73,-1.72 130.64,-1.68 132.54,-1.66 134.44,-1.63 135.62,-1.71 136.81,-1.79 138.23,-1.93 139.66,-2.07 141.21,-2.18 142.76,-2.29 144.17,-2.38 145.58,-2.46 147.17,-2.56 148.77,-2.66 150.44,-2.70 152.12,-2.74 153.56,-2.83 155.01,-2.92 156.14,-3.03 157.27,-3.13 158.57,-3.19 159.86,-3.24 161.18,-3.28 162.49,-3.32 165.44,-2.68 168.40,-2.04 170.01,-1.68 171.63,-1.31 173.21,-1.20 174.79,-1.09 176.50,-0.55 178.22,-0.01 178.67,1.19 179.13,2.40 179.30,3.49 179.46,4.57 179.38,6.71 179.30,8.84 179.21,10.17 179.12,11.50 179.06,12.62 178.99,13.74 178.74,15.95 178.48,18.17 178.30,20.15 178.12,22.13 178.09,23.47 178.07,24.81 178.12,26.06 178.16,27.31 178.18,28.83 178.21,30.35 178.15,31.46 178.09,32.57 177.93,34.26 177.77,35.95 177.64,37.14 177.51,38.33 177.47,39.57 177.44,40.81 177.38,41.96 177.33,43.11 177.15,44.25 176.97,45.39 176.85,46.70 176.72,48.00 176.48,49.55 176.24,51.10 176.16,52.20 176.08,53.30 175.34,54.94 174.59,56.58 172.89,57.09 171.19,57.61 169.87,57.35 168.55,57.10 166.96,57.06 165.37,57.02 163.92,56.90 162.46,56.78 160.80,56.75 159.13,56.73 157.85,56.54 156.56,56.36 154.88,56.16 153.21,55.95 151.65,55.85 150.09,55.74 148.23,55.76 146.38,55.77 144.69,55.79 143.00,55.82 141.94,55.74 140.87,55.65 138.61,55.34 136.36,55.03 135.23,54.93 134.10,54.82 132.49,54.61 130.87,54.41 128.90,54.27 126.94,54.14 125.85,54.14 124.77,54.14 123.35,54.12 121.94,54.10 120.72,54.04 119.50,53.98 117.94,54.16 116.38,54.35 114.85,54.52 113.33,54.70 110.11,54.80 106.89,54.89 105.02,54.92 103.15,54.94 101.34,55.20 99.52,55.46 98.33,55.75 97.14,56.04 95.11,56.25 93.08,56.46 91.53,56.41 89.98,56.36 88.34,56.49 86.70,56.62 84.83,56.76 82.97,56.91 81.21,56.94 79.46,56.98 77.01,57.06 74.55,57.14 72.34,57.11 70.14,57.09 68.76,57.25 67.39,57.42 66.03,57.62 64.68,57.82 63.39,58.09 62.10,58.37 60.93,58.62 59.76,58.87 58.17,58.97 56.59,59.07 55.09,59.19 53.59,59.31 52.38,59.41 51.18,59.52 49.92,59.59 48.66,59.65 47.37,59.68 46.09,59.70 44.94,59.74 43.79,59.78 41.66,59.74 39.53,59.69 37.93,59.60 36.33,59.50 34.84,59.44 33.36,59.38 31.69,59.42 30.03,59.45 27.64,59.29 25.25,59.14 22.93,58.91 20.61,58.68 18.53,58.52 16.44,58.36 15.17,58.40 13.91,58.44 12.21,58.48 10.51,58.52 8.97,58.47 7.44,58.42 6.16,58.25 4.89,58.09 1.52,56.33 -1.84,54.58 -1.83,54.09 -1.83,53.59 -1.66,53.13 -1.50,52.66 -1.20,52.27 -0.89,51.88 -0.48,51.61 -0.07,51.34 0.40,51.21 0.87,51.09 1.37,51.12 1.86,51.15 2.32,51.34 2.77,51.53 3.15,51.85 3.52,52.17 3.77,52.60 4.02,53.03 4.12,53.51 4.22,53.99 4.16,54.48 4.10,54.97 3.89,55.42 3.68,55.86 3.33,56.22 2.99,56.57 2.55,56.80 2.11,57.03 1.62,57.10 1.13,57.17 0.65,57.09 0.16,57.00 -0.26,56.77 -0.70,56.53 -1.03,56.17 -1.37,55.81 -1.57,55.36 -1.77,54.91 -1.82,54.41 -1.87,53.92 -1.75,53.44 -1.64,52.96 -1.38,52.54 -1.12,52.12 -0.74,51.80 -0.36,51.49 0.09,51.31 0.55,51.13 1.04,51.11 1.54,51.09 2.01,51.23 2.48,51.37 2.89,51.65 3.29,51.93 3.59,52.33 3.88,52.73 4.04,53.19 4.19,53.66 4.19,53.66 4.19,53.66 4.80,52.94 5.42,52.21 6.76,52.59 8.10,52.98 9.72,53.20 11.33,53.43 12.63,53.65 13.93,53.87 15.20,53.92 16.47,53.97 18.58,53.85 20.69,53.72 23.12,53.56 25.55,53.41 27.79,53.42 30.03,53.44 31.69,53.47 33.36,53.51 34.84,53.45 36.33,53.39 37.93,53.29 39.53,53.20 40.73,53.16 41.93,53.13 43.23,53.13 44.52,53.13 45.85,53.17 47.18,53.22 48.73,53.26 50.28,53.30 51.59,53.31 52.89,53.32 54.69,53.26 56.50,53.20 57.84,53.23 59.18,53.26 60.26,53.17 61.34,53.07 62.89,53.03 64.44,52.98 65.71,53.02 66.98,53.07 68.45,52.96 69.92,52.86 71.98,52.61 74.04,52.36 76.49,51.92 78.93,51.47 81.74,51.15 84.54,50.82 86.14,50.77 87.73,50.72 88.83,50.66 89.93,50.61 92.25,50.53 94.56,50.44 95.83,50.37 97.10,50.29 98.84,50.11 100.58,49.94 101.69,49.82 102.80,49.71 104.51,49.50 106.22,49.29 109.34,48.74 112.46,48.19 113.88,48.05 115.29,47.91 117.08,47.72 118.87,47.53 119.98,47.66 121.09,47.79 122.17,47.91 123.25,48.03 124.65,48.13 126.05,48.24 127.58,48.45 129.12,48.65 130.22,48.73 131.32,48.80 132.94,48.85 134.56,48.90 137.01,49.18 139.46,49.47 141.24,49.61 143.01,49.75 144.71,49.78 146.41,49.81 148.30,49.85 150.18,49.90 151.79,49.84 153.40,49.79 156.29,49.79 159.17,49.80 160.74,49.85 162.31,49.90 163.37,50.05 164.43,50.19 165.62,50.28 166.82,50.38 167.94,50.45 169.06,50.53 170.45,51.03 171.84,51.53 170.90,52.24 169.97,52.94 170.02,51.67 170.08,50.40 170.17,49.07 170.25,47.74 170.24,46.06 170.23,44.39 170.46,42.86 170.69,41.34 170.76,40.27 170.83,39.21 170.96,37.49 171.08,35.77 171.07,34.24 171.06,32.70 171.21,31.53 171.35,30.35 171.37,29.22 171.38,28.08 171.43,26.70 171.48,25.31 171.56,24.12 171.63,22.92 171.80,21.40 171.97,19.87 172.02,18.70 172.06,17.52 172.26,15.39 172.47,13.26 172.62,12.16 172.77,11.06 172.92,9.82 173.07,8.59 173.08,6.96 173.08,5.33 173.12,4.16 173.16,3.00 174.31,3.90 175.46,4.80 174.22,4.64 172.98,4.48 171.83,4.34 170.68,4.19 169.03,4.00 167.38,3.80 165.49,3.66 163.59,3.53 162.10,3.43 160.61,3.33 159.20,3.27 157.79,3.22 156.65,3.19 155.52,3.15 153.82,3.18 152.12,3.21 150.44,3.17 148.77,3.12 147.17,3.02 145.58,2.93 144.17,2.84 142.76,2.76 141.21,2.64 139.66,2.53 138.23,2.39 136.81,2.26 135.62,2.18 134.44,2.10 132.54,2.12 130.64,2.15 128.73,2.18 126.83,2.22 124.91,2.27 123.00,2.32 121.06,2.39 119.13,2.46 117.82,2.41 116.50,2.37 114.39,2.21 112.28,2.05 110.72,1.99 109.17,1.93 108.01,1.81 106.85,1.70 104.73,1.73 102.61,1.75 98.83,1.79 95.05,1.82 88.38,1.86 81.72,1.91 79.16,1.95 76.60,1.99 74.54,1.98 72.47,1.97 69.63,1.91 66.79,1.86 65.22,1.85 63.66,1.85 61.84,1.69 60.01,1.53 58.30,1.22 56.59,0.91 55.04,0.82 53.50,0.73 50.46,0.76 47.43,0.79 44.76,0.84 42.09,0.88 38.97,0.94 35.86,1.01 33.14,1.11 30.41,1.22 27.95,1.39 25.49,1.57 23.39,1.88 21.29,2.19 19.78,2.23 18.28,2.27 16.44,2.43 14.61,2.60 13.06,2.58 11.50,2.57 9.74,2.59 7.97,2.61 6.31,2.60 4.65,2.59 3.31,2.49 1.97,2.39 0.87,2.20 -0.21,2.01 -0.45,1.96 -0.69,1.90 -0.90,1.79 -1.12,1.68 -1.31,1.52 -1.49,1.36 -1.63,1.16 -1.78,0.96 -1.87,0.74 -1.96,0.51 -1.99,0.27 -2.02,0.03 -2.00,-0.21 -1.97,-0.45 -1.89,-0.68 -1.80,-0.91 -1.67,-1.11 -1.53,-1.32 -1.35,-1.48 -1.17,-1.65 -0.96,-1.76 -0.74,-1.88 -0.51,-1.94 -0.27,-2.00 -0.02,-2.01 0.21,-2.01 0.21,-2.01 L 0.21,-2.01 Z"></path></g><g transform="translate(876.7120971679688 123.18537902832031) rotate(0 -0.388427734375 27.473098754882812)" stroke="none"><path fill="#000000" d="M 2.54,0.21 Q 2.54,0.21 2.49,1.23 2.44,2.25 2.42,3.42 2.40,4.58 2.34,6.17 2.28,7.76 2.25,9.25 2.23,10.73 2.25,11.88 2.28,13.03 2.36,14.29 2.44,15.55 2.54,17.20 2.63,18.86 2.57,20.66 2.51,22.47 2.36,23.73 2.22,25.00 2.15,26.25 2.07,27.50 1.93,28.92 1.79,30.35 1.74,31.53 1.69,32.72 1.71,34.41 1.73,36.09 1.89,37.51 2.05,38.93 2.27,40.45 2.49,41.98 2.74,43.26 2.98,44.54 3.21,45.79 3.43,47.05 3.62,48.24 3.80,49.43 3.75,50.68 3.70,51.93 0.05,53.52 -3.59,55.12 -3.60,54.56 -3.60,54.00 -3.43,53.47 -3.25,52.94 -2.92,52.49 -2.58,52.04 -2.12,51.72 -1.66,51.41 -1.12,51.25 -0.59,51.10 -0.03,51.13 0.52,51.15 1.04,51.36 1.56,51.56 1.99,51.92 2.42,52.28 2.71,52.75 3.01,53.23 3.13,53.78 3.25,54.32 3.20,54.88 3.14,55.43 2.91,55.94 2.68,56.45 2.30,56.86 1.92,57.27 1.42,57.54 0.93,57.80 0.38,57.90 -0.16,57.99 -0.71,57.91 -1.27,57.82 -1.76,57.56 -2.26,57.30 -2.65,56.90 -3.03,56.50 -3.27,55.99 -3.51,55.48 -3.58,54.93 -3.64,54.37 -3.52,53.83 -3.41,53.28 -3.12,52.80 -2.84,52.32 -2.41,51.95 -1.99,51.58 -1.47,51.37 -0.95,51.16 -0.40,51.13 0.15,51.09 0.69,51.24 1.23,51.39 1.70,51.70 2.16,52.01 2.51,52.45 2.85,52.89 3.03,53.42 3.21,53.95 3.21,53.95 3.21,53.95 0.12,51.73 -2.97,49.51 -3.05,48.40 -3.12,47.28 -3.27,45.68 -3.43,44.08 -3.66,42.47 -3.90,40.85 -3.96,39.13 -4.02,37.42 -4.02,36.03 -4.02,34.65 -3.98,33.58 -3.95,32.51 -3.91,31.21 -3.86,29.90 -3.79,28.59 -3.71,27.27 -3.68,25.85 -3.65,24.43 -3.55,23.20 -3.45,21.97 -3.34,20.41 -3.23,18.85 -3.14,17.20 -3.04,15.54 -2.95,14.28 -2.87,13.01 -2.84,11.86 -2.81,10.71 -2.82,9.21 -2.83,7.71 -2.86,6.07 -2.89,4.43 -2.84,3.12 -2.79,1.81 -2.67,0.80 -2.54,-0.21 -2.48,-0.51 -2.42,-0.81 -2.29,-1.09 -2.15,-1.37 -1.96,-1.61 -1.76,-1.85 -1.51,-2.03 -1.27,-2.22 -0.98,-2.34 -0.70,-2.46 -0.39,-2.50 -0.09,-2.55 0.21,-2.53 0.52,-2.50 0.81,-2.40 1.10,-2.30 1.36,-2.14 1.62,-1.97 1.83,-1.75 2.05,-1.52 2.20,-1.26 2.35,-0.99 2.44,-0.69 2.52,-0.40 2.53,-0.09 2.54,0.21 2.54,0.21 L 2.54,0.21 Z"></path></g><g transform="translate(880.1161499023438 124.03562927246094) rotate(0 80.70660400390625 26.806533813476562)" stroke="none"><path fill="#000000" d="M 0.15,-2.29 Q 0.15,-2.29 1.03,-2.29 1.91,-2.29 3.09,-2.35 4.27,-2.42 6.78,-2.26 9.28,-2.10 11.63,-1.93 13.97,-1.75 15.43,-1.84 16.88,-1.93 18.66,-1.93 20.43,-1.94 21.55,-2.01 22.67,-2.08 23.86,-2.19 25.05,-2.31 26.35,-2.32 27.65,-2.34 29.01,-2.34 30.36,-2.35 32.22,-2.40 34.07,-2.44 35.76,-2.50 37.44,-2.56 40.39,-2.46 43.33,-2.36 46.82,-2.28 50.31,-2.19 52.85,-2.21 55.39,-2.23 57.30,-2.28 59.21,-2.32 60.78,-2.47 62.35,-2.62 63.81,-2.81 65.27,-2.99 67.84,-3.13 70.40,-3.27 73.13,-3.44 75.86,-3.61 79.45,-3.81 83.04,-4.00 87.06,-4.07 91.08,-4.14 94.74,-4.15 98.40,-4.17 100.50,-4.18 102.60,-4.19 104.29,-4.27 105.99,-4.35 107.66,-4.41 109.34,-4.47 110.55,-4.64 111.76,-4.80 112.87,-4.88 113.98,-4.95 116.69,-4.93 119.40,-4.91 122.48,-4.80 125.56,-4.70 128.54,-4.62 131.52,-4.54 135.28,-4.48 139.05,-4.42 141.45,-4.38 143.86,-4.34 145.25,-4.43 146.65,-4.53 147.91,-4.62 149.16,-4.70 150.38,-4.91 151.59,-5.11 153.01,-5.51 154.42,-5.91 155.64,-6.17 156.86,-6.43 158.22,-6.59 159.58,-6.76 161.25,-6.90 162.92,-7.04 164.73,-7.19 166.54,-7.33 168.06,-7.56 169.58,-7.79 170.73,-7.58 171.89,-7.37 172.63,-6.37 173.36,-5.36 173.70,-3.68 174.05,-2.00 174.01,-0.25 173.98,1.50 173.88,2.85 173.79,4.19 173.80,5.44 173.82,6.69 173.83,8.18 173.85,9.68 173.73,11.30 173.62,12.92 173.53,14.76 173.45,16.60 173.38,18.34 173.32,20.07 173.23,21.58 173.14,23.10 173.08,24.86 173.02,26.62 172.94,27.94 172.87,29.26 172.89,30.40 172.90,31.54 172.93,32.74 172.96,33.94 172.80,35.14 172.64,36.34 172.45,37.39 172.27,38.45 172.10,39.57 171.93,40.69 171.96,42.23 172.00,43.77 171.86,45.76 171.72,47.75 171.43,49.27 171.14,50.79 170.63,51.80 170.12,52.81 168.95,53.44 167.78,54.07 165.13,54.37 162.48,54.68 161.12,54.95 159.76,55.23 158.69,55.40 157.61,55.57 155.37,55.78 153.12,56.00 151.76,56.00 150.40,56.00 149.03,55.98 147.65,55.96 146.55,55.97 145.45,55.99 144.18,55.97 142.90,55.96 141.56,55.94 140.22,55.92 138.84,55.90 137.47,55.88 135.50,55.74 133.54,55.61 130.78,55.45 128.02,55.30 125.18,55.18 122.34,55.07 119.52,55.15 116.69,55.23 113.82,55.40 110.95,55.57 108.65,55.79 106.35,56.01 103.99,56.25 101.62,56.50 98.89,56.60 96.16,56.70 94.24,56.86 92.33,57.02 91.22,57.32 90.11,57.62 88.77,57.88 87.44,58.14 85.57,58.45 83.71,58.76 82.32,58.99 80.94,59.22 79.30,59.43 77.65,59.64 76.14,59.85 74.63,60.06 73.51,60.27 72.39,60.49 71.31,60.63 70.23,60.77 69.03,60.92 67.83,61.07 65.55,60.98 63.28,60.89 61.53,60.90 59.79,60.91 58.24,60.94 56.69,60.97 55.23,61.00 53.77,61.03 52.34,61.06 50.92,61.09 49.71,61.06 48.49,61.02 47.22,60.93 45.94,60.84 44.43,60.78 42.92,60.72 40.31,60.32 37.70,59.91 35.51,59.51 33.31,59.11 31.55,58.84 29.79,58.57 28.72,58.53 27.65,58.50 25.87,58.40 24.10,58.31 22.00,58.18 19.91,58.05 18.78,58.01 17.66,57.96 16.22,57.93 14.77,57.90 13.47,57.88 12.16,57.86 9.46,57.52 6.75,57.19 5.46,57.11 4.16,57.02 2.85,56.96 1.55,56.90 -0.89,56.67 -3.34,56.44 -4.76,56.21 -6.17,55.97 -9.24,54.39 -12.31,52.81 -12.29,52.35 -12.27,51.90 -12.10,51.47 -11.93,51.05 -11.64,50.70 -11.35,50.35 -10.96,50.11 -10.57,49.87 -10.12,49.77 -9.68,49.67 -9.22,49.71 -8.77,49.76 -8.36,49.95 -7.94,50.14 -7.61,50.45 -7.27,50.76 -7.06,51.16 -6.84,51.56 -6.76,52.01 -6.69,52.46 -6.76,52.91 -6.83,53.37 -7.04,53.77 -7.25,54.17 -7.58,54.49 -7.91,54.81 -8.32,55.00 -8.73,55.20 -9.19,55.25 -9.64,55.30 -10.09,55.21 -10.53,55.11 -10.93,54.88 -11.32,54.64 -11.62,54.30 -11.91,53.95 -12.09,53.53 -12.26,53.11 -12.29,52.65 -12.31,52.20 -12.19,51.76 -12.07,51.32 -11.82,50.94 -11.57,50.56 -11.21,50.28 -10.84,50.00 -10.41,49.85 -9.98,49.70 -9.53,49.70 -9.07,49.70 -8.64,49.84 -8.20,49.98 -7.84,50.26 -7.47,50.53 -7.21,50.91 -6.95,51.28 -6.83,51.72 -6.70,52.16 -6.70,52.16 -6.70,52.16 -6.03,51.28 -5.36,50.40 -4.03,50.56 -2.70,50.73 -1.44,50.84 -0.18,50.96 0.92,51.13 2.03,51.30 3.25,51.50 4.48,51.71 5.87,51.78 7.27,51.86 9.11,51.89 10.94,51.91 12.58,52.06 14.23,52.22 15.26,52.46 16.30,52.71 18.17,52.90 20.04,53.09 22.31,53.25 24.58,53.42 26.32,53.73 28.06,54.05 29.22,54.22 30.38,54.39 32.09,54.61 33.81,54.83 36.02,54.94 38.23,55.05 40.78,55.29 43.32,55.52 44.86,55.77 46.41,56.03 48.66,56.32 50.91,56.60 52.33,56.63 53.76,56.66 55.21,56.68 56.67,56.71 58.20,56.72 59.74,56.74 61.46,56.70 63.18,56.67 65.29,56.48 67.39,56.30 69.59,56.22 71.79,56.14 72.98,56.05 74.17,55.95 75.67,55.81 77.18,55.68 78.84,55.49 80.51,55.31 81.78,55.24 83.06,55.17 85.00,54.79 86.95,54.41 88.24,54.33 89.54,54.24 90.83,54.14 92.11,54.04 94.07,53.92 96.03,53.81 98.65,53.67 101.27,53.53 103.63,53.22 105.99,52.90 108.34,52.58 110.68,52.27 113.58,51.96 116.49,51.66 119.41,51.41 122.34,51.15 125.18,51.04 128.02,50.92 130.78,50.77 133.54,50.62 135.50,50.48 137.46,50.34 138.84,50.32 140.21,50.30 141.55,50.27 142.89,50.25 144.16,50.24 145.42,50.22 146.51,50.22 147.60,50.23 148.95,50.19 150.29,50.15 152.59,50.04 154.90,49.93 156.66,49.70 158.42,49.46 159.75,49.11 161.09,48.75 163.52,48.06 165.96,47.37 165.17,48.40 164.37,49.43 164.59,48.32 164.81,47.21 164.84,45.49 164.87,43.77 164.90,42.26 164.93,40.75 165.11,39.66 165.29,38.56 165.49,37.21 165.69,35.86 165.91,34.20 166.12,32.55 166.16,31.24 166.20,29.92 166.27,28.71 166.34,27.49 166.42,26.03 166.50,24.57 166.62,22.86 166.73,21.14 166.77,19.69 166.81,18.23 166.92,16.47 167.03,14.71 167.08,13.65 167.13,12.59 167.26,11.13 167.40,9.66 167.42,8.14 167.45,6.62 167.51,5.22 167.57,3.83 167.74,2.36 167.91,0.90 168.02,-0.39 168.12,-1.69 168.07,-2.93 168.01,-4.17 169.02,-3.37 170.02,-2.57 168.58,-2.52 167.15,-2.48 165.36,-2.17 163.58,-1.86 161.93,-1.59 160.29,-1.31 158.99,-1.13 157.69,-0.95 156.18,-0.92 154.67,-0.89 153.36,-0.80 152.05,-0.72 150.61,-0.81 149.16,-0.89 147.91,-0.98 146.65,-1.07 145.25,-1.16 143.86,-1.26 141.45,-1.21 139.05,-1.17 135.28,-1.11 131.52,-1.05 128.54,-0.98 125.56,-0.90 122.48,-0.79 119.40,-0.68 116.69,-0.66 113.98,-0.65 112.87,-0.72 111.77,-0.79 110.55,-0.95 109.34,-1.11 107.67,-1.17 106.00,-1.22 104.31,-1.29 102.62,-1.35 100.53,-1.32 98.43,-1.30 94.79,-1.23 91.15,-1.17 87.20,-1.03 83.24,-0.90 79.69,-0.63 76.14,-0.35 73.42,-0.06 70.71,0.22 68.16,0.52 65.61,0.83 64.09,0.90 62.58,0.98 60.93,1.03 59.28,1.08 57.40,1.12 55.51,1.15 52.92,1.32 50.32,1.48 46.85,1.59 43.38,1.70 40.51,1.86 37.64,2.01 36.05,2.10 34.47,2.19 32.42,2.47 30.36,2.76 29.01,2.75 27.66,2.75 26.37,2.74 25.08,2.72 23.91,2.63 22.73,2.53 21.62,2.49 20.52,2.44 18.82,2.51 17.11,2.57 15.53,2.64 13.94,2.71 11.55,2.85 9.17,3.00 6.68,2.90 4.18,2.80 2.89,2.66 1.59,2.52 0.72,2.40 -0.15,2.29 -0.42,2.23 -0.69,2.18 -0.94,2.07 -1.20,1.95 -1.41,1.78 -1.63,1.61 -1.80,1.39 -1.97,1.17 -2.08,0.92 -2.19,0.66 -2.24,0.39 -2.29,0.12 -2.27,-0.15 -2.25,-0.42 -2.17,-0.69 -2.08,-0.95 -1.94,-1.19 -1.79,-1.42 -1.60,-1.62 -1.40,-1.81 -1.16,-1.95 -0.92,-2.09 -0.66,-2.18 -0.39,-2.26 -0.12,-2.27 0.15,-2.29 0.15,-2.29 L 0.15,-2.29 Z"></path></g><g transform="translate(899.9974975585938 136.21910095214844) rotate(0 67 12.5)"><text x="0" y="18" font-family="Virgil, Segoe UI Emoji" font-size="20px" fill="#000000" text-anchor="start" style="white-space: pre;" direction="ltr">Filter by type</text></g><g stroke-linecap="round" transform="translate(701.9744262695312 208.7544708251953) rotate(0 45.0538330078125 31.3880615234375)"><path d="M0.18 -1.58 C20.45 -1.58, 36.47 -1.38, 88.45 -0.69 M-0.14 0.92 C28.9 0.41, 59.11 0.73, 90.71 0.3 M91.55 -1.55 C88.57 20.1, 91.79 44.44, 89.07 61.37 M89.21 0.63 C90.17 21.29, 88.8 40.55, 90.38 63.68 M91.94 62.49 C55.49 60.49, 19.97 60.39, -0.98 62.64 M89.8 63.72 C56.36 62.68, 21.04 62.82, 0.59 62.17 M1.57 63.01 C1.07 44.72, 0.54 30.94, 1.25 1.39 M0.89 62.69 C-1.19 39.85, -1.23 17.57, -0.9 0.92" stroke="#000000" stroke-width="1" fill="none"></path></g><g stroke-linecap="round" transform="translate(828.7955932617188 204.84703063964844) rotate(0 45.0538330078125 31.3880615234375)"><path d="M-0.47 1.7 C24.07 0.21, 43.35 -0.47, 89.53 0.56 M0.02 0.87 C24.16 -1.12, 47.26 -0.01, 90.4 0.44 M89.67 -0.03 C88.86 23.07, 89.26 46.05, 92.03 61.4 M90.11 -0.41 C90 13.24, 89.85 26.92, 90.23 61.92 M91.67 63.88 C64.21 63.31, 36.96 62.66, -0.47 61.11 M90.66 62.65 C68.32 62.71, 46 62.35, -0.19 63.45 M0.73 64.04 C0.37 41.67, -0.14 17.97, -0.47 -1.47 M0.45 62.25 C-0.08 48.71, 0.45 36.38, 0.77 0.01" stroke="#000000" stroke-width="1" fill="none"></path></g><g stroke-linecap="round" transform="translate(843.8655395507812 302.87953186035156) rotate(0 45.0538330078125 31.3880615234375)"><path d="M1.7 1.87 C27.22 -0.84, 53.33 -0.36, 90.67 -0.8 M0.87 0.74 C27.04 0.39, 55.44 0.27, 90.55 0.82 M90.08 -0.64 C89.77 12.54, 88.79 27.47, 88.74 61.19 M89.7 -0.48 C89.42 21.98, 89.26 45.37, 89.25 62.81 M91.21 64.21 C67.83 65, 43.58 63.01, -1.66 61.57 M89.98 62.59 C56.47 62.37, 22.88 63.09, 0.67 63.21 M1.27 62.73 C0.65 47.56, -1.5 32.99, -1.47 -1.67 M-0.53 62.56 C0.04 45.62, 1.3 28.61, 0.01 -0.69" stroke="#000000" stroke-width="1" fill="none"></path></g><g stroke-linecap="round" transform="translate(951.7435913085938 206.12486267089844) rotate(0 45.0538330078125 31.3880615234375)"><path d="M1.87 0.42 C28.03 -1.03, 57.6 -0.2, 89.31 0.06 M0.74 -0.24 C36.25 0.08, 71.96 -0.34, 90.92 -0.96 M89.47 -0.89 C89.73 22.44, 91.89 47.24, 88.52 63.98 M89.62 -0.62 C89.47 17.42, 90.23 35.55, 90.14 62.39 M91.54 64.09 C72.36 63.94, 51.1 61.61, -1.21 64.15 M89.92 62.36 C58.61 61.88, 28.74 63.33, 0.43 62.11 M-0.04 63.21 C-0.78 44.4, -0.7 28, -1.67 -0.43 M-0.21 62.29 C0.04 49.96, 0.49 35.6, -0.69 -0.41" stroke="#000000" stroke-width="1" fill="none"></path></g><g stroke-linecap="round" transform="translate(962.2097778320312 302.9619903564453) rotate(0 45.0538330078125 31.3880615234375)"><path d="M0.42 -1.05 C24.67 -1.42, 50.43 -1.64, 90.16 1.95 M-0.24 0.41 C28.11 -0.37, 54.94 0.15, 89.14 0.87 M89.22 -0.24 C88.24 19.38, 88.73 33.33, 91.32 62.58 M89.49 -0.64 C89.06 18.95, 88.99 37.68, 89.73 61.91 M91.42 64.29 C56.71 62.95, 20.33 62.22, 1.37 63.57 M89.69 61.87 C57.28 62.42, 26.69 63.04, -0.66 62.43 M0.43 62.22 C-2.12 41.17, -1.87 18.85, -0.43 -1.67 M-0.48 63.09 C1.11 41.89, 0.35 18.77, -0.41 -0.27" stroke="#000000" stroke-width="1" fill="none"></path></g><g stroke-linecap="round" transform="translate(716.8938598632812 302.93873596191406) rotate(0 45.0538330078125 31.3880615234375)"><path d="M-1.05 -0.27 C34.12 0.37, 68.58 -0.13, 92.06 0.05 M0.41 0.87 C35.15 0.66, 70.53 -0.75, 90.98 -0.22 M89.87 -1.86 C91.83 17.37, 88.32 38.7, 89.91 62.77 M89.47 -0.79 C89.93 15.39, 89.84 32.13, 89.25 63.56 M91.63 63.44 C57.64 61.71, 24.9 64.74, 0.79 63.89 M89.2 61.99 C64.05 63.07, 38.8 61.74, -0.35 63.14 M-0.55 61.06 C-0.46 38.49, -1.66 16.72, -1.67 0.9 M0.32 63.55 C0.9 47.29, -0.56 31.36, -0.27 0.71" stroke="#000000" stroke-width="1" fill="none"></path></g><g stroke-linecap="round" transform="translate(705.6218872070312 398.86293029785156) rotate(0 45.0538330078125 31.3880615234375)"><path d="M-0.2 -0.82 C35.24 -0.19, 69.21 -2.13, 88.97 -0.31 M-0.79 0.49 C34.88 -0.93, 68.47 -0.57, 89.86 0.15 M91.85 1.22 C89.03 22.98, 90.16 45.74, 91.26 64.45 M90.17 0.02 C90.58 15.5, 90.49 31.32, 89.69 62.85 M88.41 64.17 C60.26 64.47, 25.7 61.59, -1.3 63.66 M90.27 61.79 C72.6 64.23, 53.09 63.6, -0.35 62.26 M-0.98 63.6 C-1.69 37.72, 0.26 14.97, -1.36 0.59 M-0.41 63.02 C-0.15 41.95, 0.87 21.28, 0.29 -0.23" stroke="#000000" stroke-width="1" fill="none"></path></g><g stroke-linecap="round" transform="translate(831.8325805664062 395.76942443847656) rotate(0 45.0538330078125 31.3880615234375)"><path d="M-0.82 0.78 C31.98 0.38, 61.88 -1.05, 89.79 1.7 M0.49 0.18 C32.11 -0.22, 65.01 0.46, 90.26 0.66 M91.32 -0.73 C90.16 15.69, 89.92 31.72, 91.78 61.78 M90.13 -0.01 C90.32 23.53, 90.42 46.84, 90.18 63.24 M91.51 64.15 C72.6 60.05, 50.48 60.71, 0.88 60.87 M89.12 63.71 C60.84 62.79, 30.22 62.57, -0.52 63.54 M0.82 60.95 C-1.89 45.42, -1 26.46, 0.59 0.59 M0.25 62.63 C0.35 44.84, 0.36 25.48, -0.23 0.67" stroke="#000000" stroke-width="1" fill="none"></path></g><g stroke-linecap="round" transform="translate(847.1060180664062 493.1914825439453) rotate(0 45.0538330078125 31.3880615234375)"><path d="M0.78 0.16 C30.8 -1.41, 59.89 0.06, 91.81 1.22 M0.18 -0.43 C31.15 -0.51, 63.92 -0.29, 90.77 -0.57 M89.38 -0.03 C91.06 19.38, 91.81 40.98, 89.12 64.3 M90.1 -0.22 C90.05 23.03, 89.73 46.37, 90.57 61.91 M91.48 64.51 C61.52 62.26, 35.56 64.29, -1.91 63.43 M91.04 63.49 C55.47 61.96, 20.75 61.37, 0.76 62.56 M-1.82 61.35 C0.43 38.82, -1.05 16.53, 0.59 -0.01 M-0.15 62.62 C1.12 48.82, 0.55 34.91, 0.67 -0.05" stroke="#000000" stroke-width="1" fill="none"></path></g><g stroke-linecap="round" transform="translate(954.9840698242188 396.4368133544922) rotate(0 45.0538330078125 31.3880615234375)"><path d="M0.16 0.29 C24.37 -1.49, 51.97 1.35, 91.33 1.12 M-0.43 -0.93 C19.85 -0.41, 39.98 0.51, 89.54 0.13 M90.08 0.41 C90.22 25.47, 92.16 47.63, 91.64 64.15 M89.89 -0.09 C90 18.81, 90.19 38.93, 89.24 62.73 M91.84 60.81 C69.57 62.1, 52.2 61.49, 0.65 64.43 M90.82 62.64 C61.71 63.27, 32.65 64.38, -0.22 63.51 M-1.43 62.9 C-0.8 45.65, 0.33 31.84, -0.01 -1.6 M-0.15 63.64 C-0.3 46.83, -0.39 30.96, -0.05 -0.32" stroke="#000000" stroke-width="1" fill="none"></path></g><g stroke-linecap="round" transform="translate(966.9981079101562 496.65882873535156) rotate(0 45.0538330078125 31.3880615234375)"><path d="M0.29 -1.78 C22.2 -0.38, 48.38 1.15, 91.23 -1.58 M-0.93 -0.06 C31.22 0.54, 63.61 -0.18, 90.24 0.87 M90.52 -0.27 C91.04 24.32, 88.89 46.83, 91.48 62.9 M90.01 -0.11 C89.68 19.01, 90.56 37.02, 90.06 61.93 M88.14 61.63 C55.48 64.44, 21.54 64.21, 1.66 63.1 M89.97 62.85 C71.64 62.9, 54.62 63.2, 0.73 62.29 M0.13 62.23 C-0.79 41.95, 1.16 19.94, -1.6 -0.83 M0.86 62.63 C0.39 42.17, 0.76 21.97, -0.32 -0.15" stroke="#000000" stroke-width="1" fill="none"></path></g><g stroke-linecap="round" transform="translate(720.1343383789062 493.2506866455078) rotate(0 45.0538330078125 31.3880615234375)"><path d="M-1.78 -1.14 C30.23 1.57, 62.32 0.99, 88.53 0.99 M-0.06 -0.25 C28.77 1.5, 56.66 0.97, 90.98 0.61 M89.84 1.16 C91.77 15.56, 91.63 34.48, 90.23 62.81 M89.99 -0.42 C90.04 19.22, 89.11 37.47, 89.26 63.48 M88.96 61.48 C57.76 59.98, 24.32 63.55, 0.32 60.8 M90.18 62.43 C54.12 63.42, 18.95 63.39, -0.49 63.19 M-0.54 61.41 C1.03 50.25, 0.44 34.96, -0.83 0.49 M-0.14 63.07 C-0.14 45.56, 0.04 26.68, -0.15 -0.58" stroke="#000000" stroke-width="1" fill="none"></path></g><g transform="translate(77.89154052734375 587.9929962158203) rotate(0 -1.4639892578125 105.814208984375)" stroke="none"><path fill="#000000" d="M 1.56,0.03 Q 1.56,0.03 1.34,7.60 1.12,15.16 1.01,21.75 0.91,28.35 0.86,33.69 0.80,39.02 0.78,43.82 0.75,48.62 0.73,53.76 0.72,58.91 0.71,63.91 0.70,68.92 0.69,73.87 0.69,78.81 0.68,83.44 0.68,88.08 0.68,92.29 0.67,96.50 0.67,100.53 0.67,104.57 0.67,108.81 0.67,113.06 0.66,117.97 0.66,122.88 0.66,127.21 0.66,131.54 0.47,137.05 0.29,142.57 0.21,146.84 0.13,151.12 0.09,154.03 0.06,156.94 0.04,159.27 0.03,161.60 0.02,163.96 0.02,166.33 0.02,168.43 0.03,170.53 0.02,173.95 0.02,177.37 0.02,181.07 0.02,184.77 0.01,188.29 0.01,191.82 0.01,197.14 0.01,202.46 0.01,205.03 0.01,207.61 0.08,208.80 0.15,210.00 -2.14,210.43 -4.45,210.87 -4.51,210.61 -4.58,210.35 -4.56,210.08 -4.54,209.81 -4.44,209.56 -4.33,209.31 -4.15,209.11 -3.98,208.91 -3.74,208.78 -3.51,208.64 -3.24,208.59 -2.98,208.54 -2.71,208.57 -2.45,208.60 -2.20,208.72 -1.96,208.84 -1.77,209.03 -1.58,209.22 -1.46,209.46 -1.34,209.70 -1.30,209.96 -1.26,210.23 -1.31,210.50 -1.36,210.76 -1.49,211.00 -1.62,211.23 -1.82,211.41 -2.02,211.59 -2.26,211.70 -2.51,211.81 -2.78,211.83 -3.05,211.86 -3.31,211.80 -3.57,211.73 -3.80,211.59 -4.02,211.45 -4.19,211.24 -4.37,211.03 -4.46,210.78 -4.55,210.53 -4.56,210.26 -4.57,209.99 -4.50,209.73 -4.42,209.47 -4.26,209.25 -4.11,209.03 -3.89,208.87 -3.67,208.71 -3.42,208.63 -3.16,208.55 -2.89,208.56 -2.62,208.56 -2.37,208.65 -2.11,208.74 -1.90,208.91 -1.69,209.08 -1.55,209.30 -1.40,209.53 -1.40,209.53 -1.40,209.53 -2.19,209.68 -2.98,209.84 -2.80,208.72 -2.61,207.61 -2.61,205.03 -2.61,202.46 -2.61,197.14 -2.61,191.82 -2.61,188.29 -2.61,184.77 -2.62,181.07 -2.62,177.37 -2.62,173.95 -2.62,170.52 -2.61,168.42 -2.60,166.32 -2.59,163.95 -2.59,161.58 -2.57,159.25 -2.56,156.91 -2.53,153.99 -2.49,151.07 -2.41,146.78 -2.33,142.48 -2.15,137.01 -1.96,131.54 -1.96,127.21 -1.96,122.88 -1.96,117.97 -1.97,113.06 -1.97,108.81 -1.97,104.57 -1.97,100.53 -1.97,96.50 -1.97,92.29 -1.98,88.08 -1.98,83.44 -1.98,78.81 -1.99,73.86 -1.99,68.92 -2.00,63.91 -2.00,58.91 -2.00,53.76 -2.01,48.61 -2.01,43.81 -2.00,39.01 -1.99,33.66 -1.97,28.32 -1.92,21.70 -1.86,15.08 -1.71,7.52 -1.56,-0.03 -1.53,-0.22 -1.50,-0.41 -1.43,-0.58 -1.36,-0.75 -1.25,-0.91 -1.14,-1.06 -0.99,-1.18 -0.85,-1.30 -0.68,-1.39 -0.51,-1.47 -0.33,-1.51 -0.14,-1.55 0.03,-1.55 0.22,-1.54 0.40,-1.49 0.58,-1.44 0.75,-1.35 0.91,-1.26 1.05,-1.13 1.19,-1.00 1.29,-0.84 1.40,-0.69 1.46,-0.51 1.52,-0.33 1.54,-0.14 1.56,0.03 1.56,0.03 L 1.56,0.03 Z"></path></g><g transform="translate(79.4527587890625 589.2924346923828) rotate(0 142.90798950195312 96.83432006835938)" stroke="none"><path fill="#000000" d="M 0,-1.60 Q 0,-1.60 1.52,-1.67 3.04,-1.75 6.51,-1.69 9.98,-1.63 14.81,-1.80 19.65,-1.96 25.65,-2.46 31.66,-2.96 38.79,-3.38 45.92,-3.81 53.48,-4.43 61.03,-5.06 69.68,-5.56 78.32,-6.05 86.54,-6.49 94.75,-6.92 104.80,-7.10 114.84,-7.28 126.78,-7.59 138.71,-7.89 151.77,-8.02 164.82,-8.14 177.51,-8.20 190.19,-8.25 202.14,-8.27 214.09,-8.29 223.72,-8.30 233.34,-8.31 240.52,-8.53 247.70,-8.74 254.14,-9.03 260.59,-9.33 265.29,-9.45 270.00,-9.58 273.06,-9.79 276.12,-10.01 277.89,-10.33 279.67,-10.65 281.01,-10.93 282.35,-11.21 283.49,-10.01 284.63,-8.81 284.75,-7.72 284.87,-6.62 285.04,-5.19 285.20,-3.76 285.32,-1.14 285.44,1.46 285.63,4.23 285.83,6.99 286.08,9.84 286.32,12.69 286.41,17.62 286.50,22.54 286.52,27.73 286.54,32.91 286.54,36.81 286.54,40.71 286.53,46.89 286.53,53.06 286.52,57.93 286.51,62.79 286.50,68.26 286.49,73.72 286.67,78.26 286.85,82.79 286.93,87.28 287.00,91.77 287.03,96.20 287.07,100.64 287.08,104.19 287.09,107.75 287.09,111.50 287.10,115.25 287.10,119.09 287.10,122.93 287.10,128.21 287.10,133.50 287.10,136.57 287.10,139.65 287.10,144.33 287.10,149.00 286.91,152.97 286.72,156.94 286.64,160.27 286.56,163.60 286.53,166.68 286.50,169.76 286.48,173.02 286.47,176.28 286.46,179.34 286.46,182.39 286.37,184.52 286.29,186.65 286.25,188.90 286.21,191.16 286.27,192.92 286.32,194.69 286.49,196.47 286.66,198.26 286.90,199.52 287.14,200.77 287.38,201.89 287.61,203.01 286.71,204.11 285.80,205.22 284.61,205.24 283.43,205.26 281.97,205.14 280.52,205.01 278.42,204.64 276.32,204.26 273.64,203.71 270.97,203.16 265.39,202.46 259.82,201.77 252.65,201.45 245.49,201.13 236.74,200.97 227.99,200.81 216.56,200.73 205.13,200.65 192.27,200.60 179.41,200.55 167.39,200.53 155.36,200.50 144.55,200.48 133.74,200.47 124.89,200.45 116.04,200.44 107.19,200.44 98.33,200.43 92.02,200.22 85.71,200.01 76.50,199.29 67.29,198.56 60.00,198.04 52.72,197.52 43.11,196.69 33.49,195.86 28.31,195.34 23.13,194.82 20.57,194.60 18.01,194.38 16.68,194.40 15.35,194.43 13.67,194.58 12.00,194.72 10.62,195.03 9.25,195.33 7.73,195.62 6.22,195.91 4.77,195.90 3.32,195.89 2.92,196.02 2.51,196.16 2.08,196.15 1.66,196.15 1.25,196.01 0.85,195.87 0.51,195.61 0.17,195.35 -0.05,195.00 -0.29,194.64 -0.40,194.23 -0.52,193.82 -0.49,193.39 -0.46,192.97 -0.30,192.57 -0.14,192.18 0.12,191.85 0.40,191.53 0.77,191.31 1.14,191.09 1.55,191.00 1.97,190.91 2.39,190.96 2.82,191.01 3.20,191.19 3.59,191.37 3.90,191.67 4.21,191.96 4.41,192.34 4.60,192.72 4.67,193.14 4.74,193.56 4.67,193.98 4.59,194.41 4.39,194.78 4.19,195.16 3.88,195.45 3.57,195.74 3.18,195.92 2.79,196.10 2.37,196.14 1.94,196.18 1.52,196.09 1.11,195.99 0.74,195.77 0.38,195.55 0.10,195.22 -0.16,194.90 -0.32,194.50 -0.47,194.10 -0.49,193.68 -0.51,193.25 -0.40,192.84 -0.28,192.43 -0.04,192.08 0.19,191.72 0.53,191.47 0.88,191.21 0.88,191.21 0.88,191.21 3.70,190.99 6.53,190.76 8.01,190.70 9.49,190.63 10.78,190.71 12.08,190.80 13.83,191.06 15.57,191.32 16.90,191.53 18.23,191.75 20.81,191.97 23.40,192.19 28.56,192.71 33.72,193.22 43.31,194.05 52.90,194.87 60.20,195.39 67.50,195.91 76.65,196.62 85.79,197.33 92.06,197.53 98.33,197.73 107.19,197.72 116.04,197.71 124.89,197.71 133.74,197.70 144.55,197.69 155.36,197.68 167.39,197.67 179.42,197.66 192.28,197.65 205.14,197.65 216.59,197.66 228.03,197.67 236.82,197.73 245.61,197.80 252.91,198.00 260.20,198.20 265.90,198.73 271.60,199.27 274.19,199.57 276.79,199.87 279.25,199.99 281.70,200.11 282.68,200.63 283.66,201.15 283.62,199.81 283.58,198.47 283.48,196.57 283.39,194.66 283.48,192.89 283.57,191.12 283.61,188.83 283.64,186.54 283.74,184.46 283.83,182.38 283.83,179.33 283.84,176.27 283.85,173.00 283.87,169.73 283.90,166.63 283.94,163.53 284.02,160.18 284.10,156.82 284.28,152.91 284.47,149.00 284.47,144.33 284.47,139.65 284.46,136.58 284.46,133.50 284.46,128.21 284.46,122.93 284.45,119.09 284.45,115.26 284.44,111.51 284.43,107.76 284.42,104.21 284.40,100.66 284.36,96.24 284.33,91.81 284.24,87.36 284.16,82.90 283.96,78.31 283.77,73.72 283.76,68.26 283.74,62.80 283.73,57.93 283.71,53.07 283.68,46.90 283.65,40.73 283.61,36.84 283.56,32.95 283.47,27.79 283.38,22.63 283.21,17.83 283.03,13.04 282.66,10.20 282.29,7.36 281.92,4.58 281.55,1.81 281.21,-0.76 280.87,-3.33 280.47,-5.57 280.08,-7.81 278.19,-7.60 276.31,-7.39 273.19,-7.17 270.07,-6.94 265.39,-6.82 260.70,-6.70 254.24,-6.40 247.78,-6.11 240.56,-5.89 233.35,-5.67 223.72,-5.66 214.10,-5.65 202.15,-5.62 190.20,-5.60 177.53,-5.54 164.85,-5.48 151.82,-5.35 138.78,-5.21 126.84,-4.90 114.89,-4.59 104.90,-4.40 94.90,-4.20 86.69,-3.75 78.48,-3.30 69.88,-2.78 61.27,-2.27 53.69,-1.60 46.10,-0.94 39.01,-0.47 31.92,-0.00 25.85,0.55 19.78,1.12 14.88,1.37 9.98,1.63 6.51,1.69 3.04,1.75 1.52,1.67 0,1.60 -0.19,1.58 -0.38,1.55 -0.56,1.48 -0.74,1.42 -0.90,1.31 -1.06,1.20 -1.19,1.05 -1.32,0.91 -1.41,0.74 -1.50,0.56 -1.54,0.38 -1.59,0.19 -1.59,-0.00 -1.59,-0.19 -1.54,-0.38 -1.50,-0.56 -1.41,-0.74 -1.32,-0.91 -1.19,-1.05 -1.06,-1.20 -0.90,-1.31 -0.74,-1.42 -0.56,-1.48 -0.38,-1.55 -0.19,-1.58 0.00,-1.60 0.00,-1.60 L 0,-1.60 Z"></path></g><g transform="translate(135.69085693359375 546.6970977783203) rotate(0 70.5 12.5)"><text x="0" y="18" font-family="Virgil, Segoe UI Emoji" font-size="20px" fill="#000000" text-anchor="start" style="white-space: pre;" direction="ltr">Random Donut</text></g><g stroke-linecap="round" transform="translate(142.27349853515625 634.4396514892578) rotate(0 72.13961791992188 50.129119873046875)"><path d="M-0.13 -1.78 C36.26 -0.62, 70.23 1.63, 143.43 -0.44 M-0.02 0.97 C48.79 0.45, 98.7 1.86, 144.06 -0.46 M144.65 -0.73 C142.29 26.27, 144.71 55.17, 143.54 98.69 M144.58 -0.62 C144.09 35.89, 143.27 72.89, 143.54 101.02 M145.39 98.3 C107.43 98.62, 72.91 98.37, -1.92 98.88 M144.79 100.7 C110.2 102.1, 76.94 101.97, -0.07 100.07 M-0.18 101.59 C-2.04 79.32, -1.2 55.11, 0.65 -1.67 M-0.69 100.67 C-1.84 67.59, -0.37 34.14, -0.48 -0.2" stroke="#000000" stroke-width="1" fill="none"></path></g><g transform="translate(147.27349853515625 647.0687713623047) rotate(0 67 37.5)"><text x="67" y="18" font-family="Virgil, Segoe UI Emoji" font-size="20px" fill="#000000" text-anchor="middle" style="white-space: pre;" direction="ltr">Random </text><text x="67" y="43" font-family="Virgil, Segoe UI Emoji" font-size="20px" fill="#000000" text-anchor="middle" style="white-space: pre;" direction="ltr">donut img, </text><text x="67" y="68" font-family="Virgil, Segoe UI Emoji" font-size="20px" fill="#000000" text-anchor="middle" style="white-space: pre;" direction="ltr">description  </text></g><g stroke-linecap="round" transform="translate(559.1969604492188 614.4276275634766) rotate(0 140.25787353515625 94.13485717773438)"><path d="M0.87 -0.66 C109.1 -0.29, 218.61 -1.16, 281.59 -0.33 M-0.59 -0.7 C66.55 -0.07, 132.47 -0.03, 280.05 0.75 M280.81 0.02 C277.37 63.28, 280.63 122.57, 282.41 188.75 M279.54 0.74 C278.51 61.18, 278.99 122.57, 279.53 188.03 M280.67 188.61 C177.73 188.91, 74.01 190.6, -1.11 187.14 M280.64 187.95 C186.43 188.05, 91.13 188.51, 0.67 187.57 M0.96 189.26 C-0.8 122.42, 0.99 60.87, 1.97 1.52 M-0.93 187.52 C-1.41 116.21, -2.44 44.27, -0.63 -0.98" stroke="#000000" stroke-width="1" fill="none"></path></g><g transform="translate(626.1021118164062 579.8689117431641) rotate(0 47 12.5)"><text x="0" y="18" font-family="Virgil, Segoe UI Emoji" font-size="20px" fill="#000000" text-anchor="start" style="white-space: pre;" direction="ltr">About US</text></g><g transform="translate(597.8626098632812 654.4111175537109) rotate(0 89.5 50)"><text x="0" y="18" font-family="Virgil, Segoe UI Emoji" font-size="20px" fill="#000000" text-anchor="start" style="white-space: pre;" direction="ltr">Information about</text><text x="0" y="43" font-family="Virgil, Segoe UI Emoji" font-size="20px" fill="#000000" text-anchor="start" style="white-space: pre;" direction="ltr">the company, </text><text x="0" y="68" font-family="Virgil, Segoe UI Emoji" font-size="20px" fill="#000000" text-anchor="start" style="white-space: pre;" direction="ltr">contact form </text><text x="0" y="93" font-family="Virgil, Segoe UI Emoji" font-size="20px" fill="#000000" text-anchor="start" style="white-space: pre;" direction="ltr">social media links </text></g></svg>